<?xml version="1.0" standalone="no"?>
<!DOCTYPE svg PUBLIC "-//W3C//DTD SVG 20010904//EN"
 "http://www.w3.org/TR/2001/REC-SVG-20010904/DTD/svg10.dtd">
<svg version="1.0" xmlns="http://www.w3.org/2000/svg"
 width="260.000000pt" height="260.000000pt" viewBox="0 0 260.000000 260.000000"
 preserveAspectRatio="xMidYMid meet">
<metadata>
Created by potrace 1.14, written by Peter Selinger 2001-2017
</metadata>
<g transform="translate(0.000000,260.000000) scale(0.100000,-0.100000)"
fill="#000000" stroke="none">
<path d="M939 2567 c-74 -28 -134 -81 -172 -152 -17 -32 -22 -57 -22 -125 0
-84 0 -86 61 -205 33 -66 94 -174 134 -240 87 -143 121 -203 93 -165 -75 104
-225 279 -284 333 -140 128 -272 167 -382 113 -60 -29 -129 -92 -154 -139 -25
-49 -33 -86 -39 -182 -8 -146 -11 -168 -29 -218 -9 -27 -30 -69 -46 -95 -70
-110 -90 -272 -45 -367 48 -104 141 -157 281 -160 152 -4 333 46 553 152 29
14 55 24 57 21 7 -6 -169 -88 -299 -139 -56 -22 -125 -51 -154 -64 -29 -14
-56 -25 -60 -25 -12 0 -106 -70 -125 -93 -36 -46 -52 -92 -51 -152 1 -117 79
-224 240 -331 66 -43 91 -68 135 -131 66 -96 105 -134 166 -165 62 -30 169
-32 226 -4 107 53 202 215 253 431 14 60 34 218 34 269 0 83 6 67 15 -38 4
-50 9 -99 11 -110 2 -12 7 -41 10 -66 17 -140 77 -288 144 -359 61 -64 117
-85 225 -86 81 0 94 3 130 26 48 32 98 84 152 159 56 76 69 87 158 121 91 34
126 57 177 111 51 56 71 103 76 179 3 55 0 73 -21 115 -44 87 -164 181 -341
265 -55 26 -138 60 -184 75 -100 32 -105 41 -7 13 257 -73 328 -88 425 -86 78
2 103 6 140 25 57 30 97 73 126 136 20 43 23 63 20 140 -2 50 -6 104 -10 120
-9 40 -44 115 -69 150 -12 17 -31 82 -48 161 -15 72 -39 157 -53 188 -44 99
-139 169 -232 169 -54 0 -105 -11 -123 -26 -8 -6 -15 -9 -16 -6 -5 15 -142
-86 -217 -160 -73 -74 -91 -82 -43 -20 25 32 75 132 100 202 79 217 -51 433
-270 446 -50 3 -139 -10 -230 -34 -59 -16 -106 -14 -171 6 -88 27 -197 35
-245 17z m822 -1405 c-7 -2 -18 1 -23 6 -8 8 -4 9 13 5 13 -4 18 -8 10 -11z"/>
</g>
</svg>
