<?xml version="1.0" encoding="UTF-8" ?>
<!DOCTYPE svg PUBLIC "-//W3C//DTD SVG 1.1//EN" "http://www.w3.org/Graphics/SVG/1.1/DTD/svg11.dtd">
<svg width="396pt" height="441pt" viewBox="0 0 396 441" version="1.1" xmlns="http://www.w3.org/2000/svg">
<g id="#000000ff">
<path fill="#000000" opacity="1.00" d=" M 0.00 0.00 L 396.00 0.00 L 396.00 441.00 L 0.00 441.00 L 0.00 0.00 M 19.17 1.91 C 13.02 37.75 8.57 73.83 5.00 109.95 C 5.01 116.64 3.57 123.24 3.92 129.95 C 2.73 135.18 3.15 140.52 2.83 145.82 C 1.22 154.47 2.56 163.31 1.69 172.02 C 1.84 182.36 1.99 192.71 2.03 203.05 C 2.82 216.81 4.88 230.47 7.99 243.91 C 15.25 275.06 25.72 305.89 42.99 333.00 C 50.70 344.09 59.76 354.13 69.29 363.66 C 83.54 377.23 98.38 390.34 115.00 400.99 C 140.31 418.12 168.46 431.13 198.00 439.01 C 221.45 432.77 244.02 423.17 265.01 410.99 C 280.23 401.89 295.05 392.03 308.43 380.35 C 314.98 373.91 322.68 368.61 328.56 361.47 C 330.47 359.73 332.57 358.18 334.21 356.15 C 339.69 349.64 345.58 343.45 350.48 336.47 C 357.83 326.92 362.78 315.87 368.13 305.15 C 376.10 286.76 382.45 267.66 387.14 248.17 C 391.21 230.73 394.46 212.95 394.02 194.98 C 394.37 187.35 394.94 179.68 394.19 172.06 C 393.60 163.42 394.44 154.73 393.75 146.10 C 392.64 141.52 393.21 136.82 392.87 132.18 C 392.03 128.84 391.86 125.40 392.00 121.97 C 392.28 116.89 390.60 111.99 390.94 106.91 C 387.20 71.82 383.26 36.70 376.83 1.95 C 374.02 2.05 371.18 1.85 368.42 2.45 C 337.43 6.52 306.37 9.84 275.25 12.42 C 270.97 13.47 266.54 12.62 262.22 13.27 C 256.57 14.67 250.67 13.43 245.02 14.84 C 237.69 15.18 230.31 14.82 223.03 15.94 C 206.32 16.04 189.61 16.03 172.91 15.95 C 165.71 14.78 158.42 15.19 151.17 14.86 C 145.77 13.52 140.15 14.53 134.73 13.41 C 129.50 12.70 124.17 13.41 119.01 12.12 C 113.30 12.31 107.75 10.77 102.04 10.91 C 98.71 10.27 95.35 9.83 91.94 9.97 C 81.26 8.45 70.43 7.83 59.75 6.27 C 46.18 5.27 32.77 2.46 19.17 1.91 Z" />
</g>
<g id="#ffffffff">
<path fill="#ffffff" opacity="1.00" d=" M 19.17 1.91 C 32.77 2.46 46.18 5.27 59.75 6.27 C 70.43 7.83 81.26 8.45 91.94 9.97 C 95.35 9.83 98.71 10.27 102.04 10.91 C 107.75 10.77 113.30 12.31 119.01 12.12 C 124.17 13.41 129.50 12.70 134.73 13.41 C 140.15 14.53 145.77 13.52 151.17 14.86 C 158.42 15.19 165.71 14.78 172.91 15.95 C 189.61 16.03 206.32 16.04 223.03 15.94 C 230.31 14.82 237.69 15.18 245.02 14.84 C 250.67 13.43 256.57 14.67 262.22 13.27 C 266.54 12.62 270.97 13.47 275.25 12.42 C 306.37 9.84 337.43 6.52 368.42 2.45 C 371.18 1.85 374.02 2.05 376.83 1.95 C 383.26 36.70 387.20 71.82 390.94 106.91 C 390.60 111.99 392.28 116.89 392.00 121.97 C 391.86 125.40 392.03 128.84 392.87 132.18 C 393.21 136.82 392.64 141.52 393.75 146.10 C 394.44 154.73 393.60 163.42 394.19 172.06 C 394.94 179.68 394.37 187.35 394.02 194.98 C 394.46 212.95 391.21 230.73 387.14 248.17 C 382.45 267.66 376.10 286.76 368.13 305.15 C 362.78 315.87 357.83 326.92 350.48 336.47 C 345.58 343.45 339.69 349.64 334.21 356.15 C 332.57 358.18 330.47 359.73 328.56 361.47 C 322.68 368.61 314.98 373.91 308.43 380.35 C 295.05 392.03 280.23 401.89 265.01 410.99 C 244.02 423.17 221.45 432.77 198.00 439.01 C 168.46 431.13 140.31 418.12 115.00 400.99 C 98.38 390.34 83.54 377.23 69.29 363.66 C 59.76 354.13 50.70 344.09 42.99 333.00 C 25.72 305.89 15.25 275.06 7.99 243.91 C 4.88 230.47 2.82 216.81 2.03 203.05 C 1.99 192.71 1.84 182.36 1.69 172.02 C 2.56 163.31 1.22 154.47 2.83 145.82 C 3.15 140.52 2.73 135.18 3.92 129.95 C 3.57 123.24 5.01 116.64 5.00 109.95 C 8.57 73.83 13.02 37.75 19.17 1.91 Z" />
</g>
</svg>
