<?xml version="1.0" encoding="UTF-8"?>
<!-- Generated by Pixelmator Pro 2.3.8 -->
<svg width="528" height="588" viewBox="0 0 528 588" xmlns="http://www.w3.org/2000/svg" xmlns:xlink="http://www.w3.org/1999/xlink">
    <g id="ffffffff">
        <path id="Path" fill="#ffffff" stroke="none" visibility="hidden" d="M -385.426666 7.400024 C -362.519989 -0.82666 -338.41333 -5.973328 -314.093323 -6.866638 C -302.493317 -8.866638 -290.893341 -6.52002 -279.279999 -6.333313 C -252.839996 -3.706665 -226.773346 3.06665 -202.52002 14 C -197.106659 16.52002 -191.800018 19.266663 -186.453339 21.946655 C -140.279999 47.106689 -102.58667 87.493347 -81.013336 135.493317 C -66.253326 167.440002 -59.613312 202.693329 -59.373322 237.76001 C -60.293335 254.773346 -61.58667 271.82666 -65.573334 288.453339 C -79.666656 352.266663 -121.34668 408.986633 -177.213348 442.640015 C -180.386688 444.293335 -183.453339 446.133362 -186.493317 448 C -188.293335 448.840027 -190.053345 449.746674 -191.800018 450.666687 C -194.493317 451.973358 -197.17334 453.306702 -199.839996 454.666687 C -203.493317 456.266693 -207.146637 457.840027 -210.813324 459.373352 C -214.319977 460.733307 -217.800018 462.186676 -221.359985 463.41333 C -223.093353 464.06665 -224.880005 464.613312 -226.613342 465.306671 C -244.186676 470.880005 -262.373322 474.613312 -280.666656 476.34668 C -290.426666 475.786652 -300.133331 478.946655 -309.853333 476.973358 C -316.533325 475.626678 -323.493317 477.319977 -330.053314 475.359985 C -345.226654 473.986664 -360.226654 470.533325 -374.76001 465.946655 C -375.386658 465.800018 -376.639984 465.493317 -377.279999 465.333344 C -378.599976 464.746674 -379.946655 464.293335 -381.346649 463.946655 C -385.266663 462.359985 -389.23999 460.920013 -393.17334 459.373352 C -396.839996 457.786682 -400.519989 456.253357 -404.173309 454.640015 C -407.186646 453.080017 -410.253326 451.600037 -413.279999 450.053345 C -452.933319 429.640015 -486.466675 397.840027 -509.65332 359.799988 C -511.320007 356.640015 -513.200012 353.600037 -515.013306 350.546692 C -515.34668 349.880005 -516 348.546692 -516.333313 347.880005 C -518.133301 344.333313 -519.919983 340.786682 -521.679993 337.213318 C -523.546692 333.200012 -525.226685 329.106659 -526.960022 325.053345 C -528.23999 321.47998 -529.679993 317.960022 -531.013306 314.41333 C -543.986694 276.613342 -547.986694 235.666656 -541.373352 196.199982 C -534.466675 153.23999 -515.746643 112.093323 -487.41333 79.013336 C -467.839996 55.960022 -444.119995 36.453369 -417.559998 21.960022 C -412.213318 19.280029 -406.893311 16.52002 -401.47998 13.986694 C -398.373322 12.626648 -395.226654 11.34668 -392.106659 10.013306 C -389.853333 9.213318 -387.613342 8.34668 -385.426666 7.400024 M -394.919983 30.200012 C -401.213318 42.840027 -401.453308 57.853333 -397.213318 71.17334 C -393.65332 80.906677 -388.466675 89.933319 -383.799988 99.160004 C -370.253326 123.973328 -355.06665 147.839996 -340.493317 172.040009 C -353.639984 156.76001 -365.306641 140.266663 -378.266663 124.82666 C -393.853333 105.773346 -412.773315 87.880005 -436.733337 80.306671 C -449.733337 76 -464.106659 79.773346 -475.160004 87.253326 C -485.986664 94.813324 -495.333344 105.399994 -498.946655 118.306671 C -502.053345 130.706665 -502.58667 143.600006 -502.466675 156.333344 C -502.453339 167.119995 -504.959991 177.880005 -509.613342 187.613342 C -512.146667 192.76001 -516.053345 197.079987 -518.559998 202.23999 C -526.013306 217.733337 -530.119995 235.306671 -527.426636 252.480011 C -525.880005 261.626678 -520.973328 269.920013 -514.466675 276.41333 C -503.866669 287.840027 -487.853333 292.666687 -472.626678 292.786682 C -448.386658 292.920013 -425.026642 285.226654 -402.58667 276.786652 C -389.106659 271.386658 -375.733337 265.706665 -362.639984 259.386658 C -362.639984 260.053314 -362.639984 261.373322 -362.639984 262.040009 C -372.186646 266.76001 -381.65332 271.693329 -391.440002 275.920013 C -411.706665 285.213348 -432.986664 292.119995 -453.266663 301.386688 C -466.839996 307.786682 -480.466675 317.359985 -485.493317 332.159973 C -491.119995 347.493347 -485.866669 364.693298 -476.320007 377.253357 C -469.079987 386.426697 -460.626678 394.76001 -450.799988 401.146667 C -441.986664 407.17334 -431.319977 411.453308 -425.373322 420.800018 C -417.813324 431.840027 -411.039978 443.800018 -400.399994 452.253357 C -387.973328 462.533325 -370.346649 466.746674 -354.82666 461.920013 C -348.719971 459.680023 -343.199982 456.080017 -338.106659 452.06665 C -332.866638 446.960022 -328.026672 441.359985 -324.399994 434.973358 C -323.866638 436.06665 -323.346649 437.160004 -322.813324 438.253357 C -322.573303 436.76001 -322.82666 435.41333 -323.573303 434.213348 C -321.559998 430.293335 -319.346649 426.466675 -317.41333 422.506683 C -319.893311 421 -318.359985 418.453339 -317.079987 416.733337 C -316.666656 417.226685 -315.839996 418.213348 -315.426666 418.706665 C -300.866669 382.679993 -295.920013 343.279968 -297.41333 304.640015 C -296.333344 305.52002 -295.559998 306.786682 -295.906647 308.253357 C -297 316.706665 -294.933319 325.133362 -294.946686 333.600037 C -292.893341 358.746643 -290.666656 384.293335 -282.026672 408.200012 C -276.279999 424.186707 -266.493317 439.906677 -250.733337 447.560028 C -235.453339 454.920013 -216.333344 455.773315 -201.23999 447.466675 C -196.17334 444.373352 -191.65332 440.440002 -187.506683 436.213348 C -178.41333 426.426697 -172.506683 414.093323 -162.800018 404.853333 C -154.946655 398.506653 -144.34668 397.706665 -135.52002 393.213318 C -117.880005 385.23999 -102.786652 369.440002 -99.706665 349.840027 C -96.733307 333.76001 -105.213348 317.880005 -116.813324 307.266693 C -148.133331 280.959991 -186.866669 265.226654 -225.986664 254.58667 C -230.480011 253.146667 -235.266663 252.679993 -239.559998 250.626678 C -234.466675 250.82666 -229.559998 252.306671 -224.65332 253.533325 C -197.986664 259.813324 -172.146637 269.226654 -145.266693 274.706665 C -129.93335 277.693329 -113.186676 278.920013 -98.680023 272.040009 C -83.546661 265.453339 -73.133331 250.133331 -71.626678 233.800018 C -70.026642 216.853333 -72.040009 199.066681 -79.839996 183.746674 C -83.52002 176.266663 -89.506683 169.906647 -91.626678 161.706665 C -94.65332 142.786652 -97.506683 123.386658 -105.946655 105.973328 C -113.693329 92.466675 -127.386688 81.34668 -143.293335 80.066681 C -157.906647 79.23999 -171.986664 85.186676 -183.93335 93.160004 C -201.573334 104.720001 -215.733307 120.58667 -229.519989 136.333344 C -217.026642 117.506653 -204.133331 98.359985 -197.693329 76.453339 C -192.773315 60.293335 -194.880005 42.093323 -203.680023 27.640015 C -212.733307 12.919983 -229.146667 3.679993 -246.093353 1.599976 C -264.279999 -0.159973 -281.559998 7.186646 -299.199982 10.266663 C -308.266663 11.946655 -316.919983 7.919983 -325.493317 5.679993 C -336.106659 2.880005 -347.279999 -0.359985 -358.266663 2.226685 C -373.58667 5.986694 -387.746643 15.93335 -394.919983 30.200012 Z"/>
        <path id="path1" fill="#ffffff" stroke="none" visibility="hidden" d="M -387.426697 35.41333 C -380.82666 22.080017 -367.320007 12.453308 -352.613342 10.373352 C -336.026672 9.52002 -320.986694 18.400024 -304.693329 19.733337 C -286.546661 18.93335 -269.613342 10.253357 -251.346649 10.320007 C -235.666656 10.893311 -219.746674 18.693359 -211.333344 32.253357 C -203.880005 44.480042 -202.06665 59.960022 -206.213348 73.640015 C -211.226685 90.58667 -220.47998 105.799988 -229.906647 120.600006 C -242.733337 140.079987 -257.373322 158.293335 -272.440002 176.053314 C -279.199982 173.23999 -286.853333 171.76001 -292.440002 166.773346 C -297.58667 161.626678 -297.186676 153.76001 -297.213348 147.026672 C -297.346649 125.026672 -296.880005 103 -297.440002 81.013336 C -299.506683 81.013336 -302.653351 81.399994 -302.399994 84.200012 C -302.399994 107.359985 -302.386658 130.519989 -302.386658 153.679993 C -302.213348 157.053314 -303.266663 160.279999 -304.17334 163.480011 C -309.800018 171.053314 -320.053345 170.986664 -328.040009 174.519989 C -347.893341 142.839996 -367.986694 111.186676 -384.666687 77.679993 C -391.480011 64.906677 -393.600006 48.813354 -387.426697 35.41333 M -276.293335 27.026672 C -276.506683 27.573364 -276.920013 28.65332 -277.133331 29.200012 C -277.480011 28.93335 -278.186676 28.386658 -278.546661 28.119995 C -284.293335 30.159973 -290.426666 31.893372 -296.58667 31.133362 C -311.026672 28.893311 -324.58667 21.893311 -339.400024 22.06665 C -350.053345 21.626648 -360.640015 25.613342 -368.840027 32.293335 C -370.533325 34.626709 -366.973328 37.65332 -364.786682 35.65332 C -360.013336 32.52002 -354.559998 29.813354 -348.679993 30.093323 C -337.573334 30.253357 -327.800018 36.146667 -317.706665 40.013367 C -307.959991 43.34668 -297.639984 46.600037 -287.226654 44.920044 C -274.813324 42.76001 -264.23999 35.453369 -252.693329 30.893311 C -246.053314 28.186646 -238.026672 27.65332 -231.800018 31.706665 C -228.160004 33.386658 -225.959991 38.06665 -221.41333 37.253357 C -221.293335 36.359985 -221.06665 34.58667 -220.946655 33.693359 C -228.133331 26.359985 -237.053314 19.786682 -247.58667 18.786682 C -257.813324 18.159973 -267.199982 23.053345 -276.293335 27.026672 Z"/>
        <path id="path2" fill="#ffffff" stroke="none" visibility="hidden" d="M -471.573334 95.973328 C -462.640015 89.106659 -450.480011 85.41333 -439.453339 88.880005 C -422.226685 94.480011 -407.680023 106.026672 -395.34668 118.973328 C -386.986694 128.093353 -379.306671 137.800018 -371.640015 147.506683 C -362.34668 159.786652 -352.786682 171.880005 -342.41333 183.266663 C -349.82666 188.453339 -355.373352 195.813324 -359.920013 203.546661 C -361.800018 206.666656 -363.253357 210.226654 -366.213348 212.519989 C -368.573334 213.906647 -371.493347 213.253326 -374 212.693329 C -394.960022 206.786652 -415.746674 200.253326 -436.680023 194.253326 C -438.293335 193.786652 -439.986664 193.906647 -441.640015 193.853333 C -441.613342 195.293335 -441.58667 196.733337 -441.559998 198.186676 C -422.160004 203.959991 -402.746674 209.720001 -383.34668 215.480011 C -378.853333 216.973328 -374.106689 217.906647 -369.986694 220.306671 C -367 223.546661 -367.906677 228.279999 -367.773346 232.279999 C -368.080017 238.573334 -367.280029 244.866669 -365.693359 250.946686 C -378.960022 257.119995 -392.293335 263.119995 -405.973358 268.293335 C -428.146667 276.720001 -451.320007 284.773346 -475.373322 284 C -489.080017 283.693329 -502.399994 277.440002 -511.213348 266.920013 C -514.746643 261.733337 -518.026672 256.199982 -518.693359 249.839996 C -520.466675 235.626678 -517.333313 221.146667 -511.34668 208.253326 C -508.453339 201.693329 -503.480011 196.333344 -500.613342 189.746674 C -495.613342 178.466675 -493.119995 166.040009 -493.480011 153.693329 C -493.23999 140.639984 -493.279999 126.959991 -487.946655 114.786652 C -484.293335 107.34668 -478.519989 101.040009 -471.866669 96.160004 C -471.880005 95.573334 -471.893341 94.399994 -471.906677 93.799988 L -471.573334 95.973328 M -472.253326 127.720001 C -478.440002 143.306671 -473.65332 160.146667 -475.279999 176.266663 C -477.893341 194.813324 -495.200012 205.959991 -501.493347 222.853333 C -504.453339 230.373322 -504.213348 238.679993 -502.799988 246.519989 C -503.160004 246.853333 -503.880005 247.533325 -504.23999 247.880005 C -503.653351 248.133331 -502.506683 248.653351 -501.920013 248.906647 C -500.746674 253.493317 -498.946655 257.880005 -496.93335 262.160004 C -495.93335 262.146667 -494.93335 262.133331 -493.93335 262.133331 C -493.533325 261.346649 -492.733337 259.800018 -492.333344 259.013336 C -494.600006 250.279999 -497.226654 240.933319 -494.360016 232 C -492.133331 223.119995 -484.76001 217.040009 -478.493347 210.920013 C -470.093323 202.373322 -461.786652 192.320007 -460.559998 179.933319 C -459.186676 162.613342 -467.066681 145.213348 -462.293335 128.053314 C -459.58667 117.946655 -450.399994 111.279999 -440.866669 108.200012 C -437.960022 108.106659 -437.240021 102.720001 -440.480011 102.58667 C -453.786652 106.160004 -467.306671 114.17334 -472.253326 127.720001 Z"/>
        <path id="path3" fill="#ffffff" stroke="none" visibility="hidden" d="M -182.773315 103.373322 C -172.693329 96.17334 -161.226685 90 -148.65332 89.079987 C -141.65332 88.559998 -134.839996 90.839996 -128.82666 94.279999 C -127.34668 93.266663 -125.76001 92.733337 -123.853363 93.160004 C -125.253326 93.706665 -126.640015 94.226654 -128.013336 94.76001 C -121.786652 99.933319 -115.386688 105.65332 -112.41333 113.41333 C -107.693329 124.600006 -105.093353 136.533325 -102.866669 148.41333 C -101.34668 156.199982 -101.373322 164.493317 -97.466675 171.613342 C -91.866669 181.853333 -84.466675 191.466675 -82.306671 203.213348 C -79.600006 217.266663 -78.266693 232.546661 -84.160004 246 C -89.52002 257.706665 -101.373322 265.519989 -113.946655 267.346649 C -128.23999 269.480011 -142.680023 266.373322 -156.533325 262.959991 C -182.946655 256.133331 -208.853363 247.253326 -235.613342 241.786652 C -235.959991 241.573334 -236.653351 241.133331 -237 240.920013 C -235.679993 233.213348 -238.119995 225.506683 -237.160004 217.800018 C -235.839996 213.533325 -231.320007 211.519989 -227.653351 209.600006 C -207.226685 199.920013 -186.65332 190.519989 -166.213348 180.853333 C -166.426666 178.82666 -167.319977 177.186676 -168.893341 175.933319 C -167.65332 175.399994 -166.399994 174.880005 -165.146637 174.360016 C -166.133331 173.866669 -167.093353 173.360016 -168.093353 172.933319 C -168.973358 174.666656 -169.560028 176.839996 -171.640015 177.506683 C -190.266693 186.146667 -208.786652 195.026672 -227.41333 203.679993 C -230.893341 205.333344 -234.546661 206.559998 -238.253326 207.559998 C -241.199982 206.279999 -243.946686 204.386658 -245.58667 201.559998 C -248.76001 196.253326 -253.160004 191.880005 -257.066681 187.146667 C -253.893341 182.959991 -250.786652 178.706665 -247.693329 174.426666 C -234.880005 157.320007 -222 140.146667 -206.959991 124.880005 C -199.306671 117.293335 -191.76001 109.426666 -182.773315 103.373322 M -144.306671 98.693329 C -144.306671 99.853333 -144.333344 102.17334 -144.34668 103.333344 C -137.640015 107.546661 -131.34668 113.17334 -129.146637 121.093323 C -123.600006 137.679993 -131.41333 155.026672 -127.920013 171.82666 C -125.41333 181.426666 -119.319977 189.613342 -112.720001 196.839996 C -106.573334 203.639984 -99.693329 210.76001 -98.279999 220.23999 C -96.119995 228.199982 -99.333344 236.213348 -98.880005 244.226654 C -96.266693 244.706665 -94.693329 243.813324 -94.119995 241.559998 C -89.773315 230.333344 -87.226685 217.506683 -91.533325 205.866669 C -96.186676 192.17334 -108.41333 182.693329 -113.053345 169 C -116.746674 156.600006 -114.333344 143.373322 -117.146637 130.82666 C -119.786652 116.386658 -130.666656 103.799988 -144.306671 98.693329 Z"/>
        <path id="path4" fill="#ffffff" stroke="none" visibility="hidden" d="M -341.200012 195.693329 C -330.546692 185.226654 -315.640015 179.053314 -300.639984 179.653351 C -276.920013 179.893341 -254.933319 197.360016 -248.839996 220.213348 C -245 233.733337 -246.693329 248.679993 -253.440002 261.026672 C -259.773346 272.613342 -270.199982 282.053314 -282.626678 286.693329 C -300.933319 293.880005 -322.746674 290.06665 -337.773346 277.426666 C -350.026672 267 -357.679993 251.17334 -357.480011 235.026672 C -357.82666 220.399994 -351.400024 206.026672 -341.200012 195.693329 M -302.800018 192.786652 C -302.333344 194.186676 -301.893341 195.600006 -301.41333 197.013336 C -294.026672 197.973328 -286.546661 199.733337 -280.546661 204.399994 C -270.293335 211.399994 -264.040009 223.959991 -264.786652 236.386658 C -264.813324 250.373322 -274.146667 263.360016 -286.653351 269.160004 C -291.453339 271.533325 -296.866669 271.933319 -302 273.119995 C -302.613342 275.17334 -302.440002 278.866669 -299.546661 278.746674 C -287.533325 278.573334 -276.093353 272.279999 -268.453339 263.17334 C -261.880005 255.440002 -257.986664 245.293335 -258.213348 235.093353 C -257.959991 222.880005 -263.453339 210.906647 -272.253326 202.533325 C -277.466675 198.160004 -283.360016 194.533325 -289.933319 192.639984 C -294.079987 191.519989 -298.973328 189.973328 -302.800018 192.786652 Z"/>
        <path id="path5" fill="#ffffff" stroke="none" visibility="hidden" d="M -245.41333 267.706665 C -243.920013 265.133331 -242.626678 262.453339 -241.213348 259.82666 C -203.386688 269.440002 -165.746674 282.733337 -133.680023 305.506653 C -123.41333 312.466675 -113.58667 321.506653 -109.706665 333.65332 C -106.106659 344.466675 -109.399994 356.386658 -115.58667 365.573303 C -123.386688 376.960022 -135.706665 384.640015 -148.720001 388.706665 C -156.52002 391.119995 -164.82666 393.58667 -170.640015 399.666687 C -182.946655 412.386658 -189.946655 430.319977 -205.76001 439.506653 C -214.373322 444.906647 -224.986664 444.746643 -234.693329 443.426666 C -248.626678 441.026642 -260.493317 431.293335 -267.146667 419.026642 C -276.226654 403.399963 -279.76001 385.333313 -282.399994 367.666687 C -285.466675 344.893372 -286.880005 321.906647 -288.213348 298.986633 C -282.399994 297.706665 -276.800018 295.65332 -271.480011 293.013306 C -267.493317 291.079987 -262.133331 290.013306 -258.453339 293.119995 C -254.573334 295.839996 -251.426666 299.426666 -248.41333 303.06665 C -234.426666 318.76001 -220.613312 334.613342 -206.666656 350.34668 C -205.613312 351.880005 -203.720001 352.17334 -202.093353 352.82666 C -201.786652 352.013367 -201.17334 350.386658 -200.866669 349.573303 C -203.680023 344.666687 -208.279999 341.146667 -211.680023 336.679993 C -223.226685 323.733307 -234.666656 310.706665 -246.160004 297.706665 C -249.82666 293.906647 -252.82666 289.466675 -254.559998 284.453339 C -253.386658 277.946686 -248.493317 273.279999 -245.41333 267.706665 M -134.386688 331.866638 C -133.693329 337.146667 -133.41333 342.76001 -135.693329 347.720032 C -138.720001 355.279968 -146.053345 359.93335 -153.186676 363.106628 C -154.466675 362.52002 -155.813324 362.293335 -157.23999 362.440002 C -156.186676 362.986633 -155.119995 363.546692 -154.040009 364.106628 C -162.600006 367.373352 -171.160004 370.82666 -179.119995 375.386658 C -189.720001 382.06665 -195.720001 393.546692 -200.800018 404.573303 C -203.65332 410.466675 -206.666656 416.746643 -212.160004 420.65332 C -216.906647 423.946655 -222.82666 424.079987 -228.333344 424.959991 C -229.440002 430.613312 -222.813324 430 -219.186676 429.41333 C -209.359985 428.880005 -200.506683 423.026642 -195.079987 414.986633 C -187.666656 405.613342 -182.06665 394.679993 -172.93335 386.773315 C -161.439972 378.039978 -147.17334 373.119995 -137.160004 362.386658 C -128.893341 354.906677 -125.720001 342.533325 -129.746674 332.080017 C -130.839996 330.093323 -132.906647 331.06665 -134.386688 331.866638 Z"/>
        <path id="path6" fill="#ffffff" stroke="none" visibility="hidden" d="M -358.973328 269.893341 C -356.906647 269.773346 -352.880005 270.773346 -355.599976 273.293335 C -351.919983 278.279999 -347.17334 282.306671 -343.266663 287.06665 C -341.186646 290.346649 -343.933319 293.746643 -345.839996 296.34668 C -349.266663 300.453308 -352.039978 305.053345 -355.666656 309 C -356.119995 309.119995 -357.053314 309.373322 -357.519989 309.506653 C -357.266663 309.76001 -356.773315 310.266663 -356.519989 310.533325 C -367.839996 324.573303 -378.506653 339.133362 -389.666656 353.293335 C -389.82666 356.706665 -386.880005 357.65332 -384.386658 355.573303 C -376.146667 343.880005 -367.119995 332.733337 -358.266663 321.506653 C -358.373322 320.52002 -358.573303 318.559998 -358.679993 317.573303 C -358.506653 318.306671 -358.159973 319.76001 -357.986664 320.493317 C -351.666656 312.866638 -345.799988 304.880005 -339.65332 297.093323 C -337.06665 295.733337 -334.266663 293.693329 -331.186646 294.693329 C -323.079987 297.186676 -314.973328 299.946655 -306.41333 300.466675 C -305.813324 321.839996 -306.160004 343.34668 -309.893341 364.453308 C -313.440002 386.41333 -319.533325 408.23999 -330.466675 427.733307 C -337.17334 439.23999 -346.733337 450.186676 -359.946655 454.053345 C -371.506653 456.23999 -384.133331 453.640015 -393.399994 446.23999 C -404.65332 437.76001 -411.293335 424.986633 -419.306671 413.720032 C -427.866669 402.013367 -442.34668 397.52002 -453.040009 388.293335 C -457.266663 385.119995 -461.053345 381.453308 -464.493347 377.453308 C -471.666656 369.266663 -477.82666 359.440002 -478.65332 348.333313 C -479.506653 339.47998 -476.013336 330.733307 -470.359985 324.039978 C -466.613342 320.17334 -462.333344 316.853333 -457.773346 314.013336 C -449.920013 309.319977 -441.41333 305.853333 -432.933319 302.506653 C -407.839996 292.706665 -382.47998 283.213348 -358.973328 269.893341 M -466.373322 331.746643 C -469.693329 341.253357 -468.293335 352.52002 -462.119995 360.640015 C -453.693329 372.106628 -440.213348 377.893372 -428.733337 385.666687 C -414.573334 395.706665 -409.119995 413.080017 -398.82666 426.359985 C -390.719971 436.693298 -377.813324 443.773315 -364.559998 443.333313 C -362.880005 440.213318 -366.199982 438.106628 -368.773315 437.47998 C -379.306641 433.880005 -389.47998 427.373322 -394.359985 417.013336 C -399.386658 405.773315 -402.493317 393.306702 -410.933319 383.946655 C -423.506653 369.746643 -445.146667 369 -457.573334 354.640015 C -462.986664 348.399963 -462.546661 339.693298 -462.160004 331.973328 C -463.559998 331.853333 -464.959991 331.733307 -466.373322 331.746643 Z"/>
    </g>
    <g id="040404ff">
        <path id="path7" fill="#040404" stroke="none" d="M 168.080002 92.200012 C 175.253342 77.93335 189.41333 67.986694 204.733337 64.226685 C 215.719986 61.640015 226.893326 64.880005 237.506668 67.679993 C 246.080002 69.919983 254.733337 73.946655 263.800018 72.266663 C 281.440002 69.186646 298.720001 61.840027 316.906647 63.599976 C 333.853333 65.679993 350.266693 74.919983 359.319977 89.640015 C 368.119995 104.093323 370.226685 122.293335 365.306671 138.453339 C 358.866669 160.359985 345.973358 179.506653 333.480011 198.333344 C 347.266693 182.58667 361.426666 166.720001 379.06665 155.160004 C 391.013336 147.186676 405.093353 141.23999 419.706665 142.066681 C 435.613312 143.34668 449.306671 154.466675 457.053345 167.973328 C 465.493317 185.386658 468.34668 204.786652 471.373322 223.706665 C 473.493317 231.906647 479.47998 238.266663 483.160004 245.746674 C 490.959991 261.066681 492.973358 278.853333 491.373322 295.800018 C 489.866669 312.133331 479.453339 327.453339 464.319977 334.040009 C 449.813324 340.920013 433.06665 339.693329 417.733307 336.706665 C 390.853363 331.226654 365.013336 321.813324 338.34668 315.533325 C 333.440002 314.306671 328.533325 312.82666 323.440002 312.626678 C 327.733337 314.679993 332.519989 315.146667 337.013336 316.58667 C 376.133331 327.226654 414.866669 342.959991 446.186676 369.266663 C 457.786652 379.880005 466.266693 395.76001 463.293335 411.840027 C 460.213348 431.440002 445.119995 447.23999 427.47998 455.213318 C 418.65332 459.706665 408.053345 460.506653 400.199982 466.853333 C 390.493317 476.093323 384.58667 488.426666 375.493317 498.213348 C 371.34668 502.439972 366.82666 506.373322 361.76001 509.466675 C 346.666656 517.773315 327.546661 516.919983 312.266663 509.560028 C 296.506683 501.906647 286.720001 486.186676 280.973328 470.200012 C 272.333344 446.293335 270.106659 420.746643 268.053314 395.600037 C 268.066681 387.133362 266 378.706665 267.093353 370.253357 C 267.440002 368.786682 266.666656 367.52002 265.58667 366.640015 C 267.079987 405.279968 262.133331 444.679993 247.573318 480.706665 C 247.159988 480.213348 246.333328 479.226685 245.919998 478.733307 C 244.639999 480.453339 243.106674 483 245.58667 484.506683 C 243.653336 488.466675 241.440002 492.293335 239.426682 496.213348 C 240.17334 497.41333 240.426682 498.76001 240.186661 500.253326 C 239.653336 499.160004 239.133347 498.06665 238.599991 496.973358 C 234.973328 503.359985 230.133347 508.959991 224.893326 514.06665 C 219.800003 518.080017 214.280014 521.679993 208.17334 523.919983 C 192.653336 528.746643 175.026672 524.533325 162.599991 514.253357 C 151.960007 505.800018 145.186661 493.839996 137.626663 482.800018 C 131.680008 473.453308 121.013336 469.17334 112.200005 463.146667 C 102.373329 456.76001 93.920006 448.426697 86.68 439.253357 C 77.133331 426.693298 71.879997 409.493347 77.506668 394.159973 C 82.533333 379.359985 96.160004 369.786682 109.733337 363.386658 C 130.013336 354.119995 151.293335 347.213348 171.559998 337.920013 C 181.346664 333.693329 190.813339 328.76001 200.360001 324.040009 C 200.360001 323.373322 200.360001 322.053314 200.360001 321.386658 C 187.266663 327.706665 173.893326 333.386658 160.41333 338.786652 C 137.973343 347.226654 114.613335 354.919983 90.373329 354.786682 C 75.146667 354.666687 59.133331 349.840027 48.533337 338.41333 C 42.026669 331.920013 37.119999 323.626678 35.573334 314.480011 C 32.880001 297.306671 36.986668 279.733337 44.440002 264.23999 C 46.946667 259.079987 50.853333 254.76001 53.386669 249.613342 C 58.039997 239.880005 60.546665 229.119995 60.533337 218.333344 C 60.413334 205.600006 60.946667 192.706665 64.053337 180.306671 C 67.666664 167.399994 77.013329 156.813324 87.839996 149.253326 C 98.893333 141.773346 113.266663 138 126.266663 142.306671 C 150.226669 149.880005 169.146667 167.773346 184.733337 186.82666 C 197.693344 202.266663 209.360001 218.76001 222.506668 234.040009 C 207.933334 209.839996 192.746658 185.973328 179.199997 161.160004 C 174.533325 151.933319 169.346664 142.906677 165.786667 133.17334 C 161.546677 119.853333 161.786667 104.839996 168.080002 92.200012 M 175.573318 97.41333 C 169.400009 110.813324 171.520004 126.906677 178.333328 139.679993 C 195.013321 173.186676 215.106674 204.839996 234.960007 236.519989 C 242.946671 232.986664 253.199982 233.053314 258.82666 225.480011 C 259.733337 222.279999 260.786652 219.053314 260.613342 215.679993 C 260.613342 192.519989 260.600006 169.359985 260.600006 146.200012 C 260.346649 143.399994 263.493317 143.013336 265.559998 143.013336 C 266.119995 165 265.653351 187.026672 265.786652 209.026672 C 265.813324 215.76001 265.41333 223.626678 270.559998 228.773346 C 276.146667 233.76001 283.800018 235.23999 290.559998 238.053314 C 305.626678 220.293335 320.266663 202.079987 333.093353 182.600006 C 342.52002 167.799988 351.773315 152.58667 356.786652 135.640015 C 360.93335 121.959991 359.119995 106.480011 351.666656 94.253326 C 343.253326 80.693359 327.333344 72.893311 311.653351 72.320007 C 293.386658 72.253357 276.453339 80.93335 258.306671 81.733337 C 242.013321 80.400024 226.973328 71.52002 210.386658 72.373352 C 195.679993 74.453308 182.17334 84.080017 175.573318 97.41333 M 91.426666 157.973328 L 91.09333 155.799988 C 91.106667 156.399994 91.119995 157.573334 91.133331 158.160004 C 84.480003 163.040009 78.706665 169.34668 75.053337 176.786652 C 69.720001 188.959991 69.760002 202.639984 69.519997 215.693329 C 69.879997 228.040009 67.386665 240.466675 62.386665 251.746674 C 59.52 258.333344 54.546665 263.693329 51.653336 270.253326 C 45.666668 283.146667 42.533337 297.626678 44.306667 311.839996 C 44.973331 318.199982 48.25333 323.733337 51.786667 328.920013 C 60.600002 339.440002 73.919998 345.693329 87.626671 346 C 111.68 346.773346 134.853333 338.720001 157.026657 330.293335 C 170.706665 325.119995 184.039993 319.119995 197.306656 312.946686 C 195.719986 306.866669 194.919998 300.573334 195.226669 294.279999 C 195.093338 290.279999 196 285.546661 193.013321 282.306671 C 188.893326 279.906647 184.146667 278.973328 179.653336 277.480011 C 160.253342 271.720001 140.839996 265.959991 121.440002 260.186676 C 121.41333 258.733337 121.386665 257.293335 121.359993 255.853333 C 123.013336 255.906647 124.706665 255.786652 126.319992 256.253326 C 147.253342 262.253326 168.039993 268.786652 189 274.693329 C 191.506668 275.253326 194.426682 275.906647 196.786667 274.519989 C 199.746658 272.226654 201.199997 268.666656 203.080002 265.546661 C 207.626663 257.813324 213.17334 250.453339 220.58667 245.266663 C 210.213333 233.880005 200.653336 221.786652 191.360001 209.506683 C 183.693344 199.800018 176.013321 190.093353 167.653336 180.973328 C 155.319992 168.026672 140.773331 156.480011 123.546669 150.880005 C 112.519997 147.41333 100.359993 151.106659 91.426666 157.973328 M 380.226685 165.373322 C 371.23999 171.426666 363.693329 179.293335 356.040009 186.880005 C 341 202.146667 328.119995 219.320007 315.306671 236.426666 C 312.213348 240.706665 309.106659 244.959991 305.933319 249.146667 C 309.839996 253.880005 314.23999 258.253326 317.41333 263.559998 C 319.053314 266.386658 321.800018 268.279999 324.746674 269.559998 C 328.453339 268.559998 332.106659 267.333344 335.58667 265.679993 C 354.213348 257.026672 372.733307 248.146667 391.359985 239.506683 C 393.439972 238.839996 394.026642 236.666656 394.906647 234.933319 C 395.906647 235.360016 396.866669 235.866669 397.853363 236.360016 C 396.600006 236.880005 395.34668 237.399994 394.106659 237.933319 C 395.680023 239.186676 396.573334 240.82666 396.786652 242.853333 C 376.34668 252.519989 355.773315 261.920013 335.346649 271.600006 C 331.679993 273.519989 327.160004 275.533325 325.839996 279.800018 C 324.880005 287.506683 327.320007 295.213348 326 302.920013 C 326.346649 303.133331 327.040009 303.573334 327.386658 303.786652 C 354.146637 309.253326 380.053345 318.133331 406.466675 324.959991 C 420.319977 328.373322 434.76001 331.480011 449.053345 329.346649 C 461.626678 327.519989 473.47998 319.706665 478.839996 308 C 484.733307 294.546661 483.399994 279.266663 480.693329 265.213348 C 478.533325 253.466675 471.133331 243.853333 465.533325 233.613342 C 461.626678 226.493317 461.65332 218.199982 460.133331 210.41333 C 457.906647 198.533325 455.306671 186.600006 450.58667 175.41333 C 447.613312 167.65332 441.213348 161.933319 434.986664 156.76001 C 436.359985 156.226654 437.746674 155.706665 439.146637 155.160004 C 437.23999 154.733337 435.65332 155.266663 434.17334 156.279999 C 428.160004 152.839996 421.34668 150.559998 414.34668 151.079987 C 401.773315 152 390.306671 158.17334 380.226685 165.373322 M 221.800003 257.693329 C 211.599991 268.026672 205.17334 282.399994 205.520004 297.026672 C 205.320007 313.17334 212.973328 329 225.226669 339.426666 C 240.253342 352.06665 262.066681 355.880005 280.373322 348.693329 C 292.800018 344.053314 303.226654 334.613342 309.559998 323.026672 C 316.306671 310.679993 318 295.733337 314.160004 282.213348 C 308.066681 259.360016 286.079987 241.893341 262.360016 241.653351 C 247.360001 241.053314 232.453323 247.226654 221.800003 257.693329 M 317.58667 329.706665 C 314.506683 335.279999 309.613342 339.946686 308.440002 346.453339 C 310.17334 351.466675 313.17334 355.906677 316.839996 359.706665 C 328.333344 372.706665 339.773315 385.733337 351.319977 398.679993 C 354.720001 403.146667 359.319977 406.666687 362.133331 411.573303 C 361.82666 412.386658 361.213348 414.013367 360.906647 414.82666 C 359.279999 414.17334 357.386688 413.880005 356.333344 412.34668 C 342.386688 396.613342 328.573334 380.76001 314.58667 365.06665 C 311.573334 361.426697 308.426666 357.840027 304.546661 355.119995 C 300.866669 352.013306 295.506683 353.080017 291.519989 355.013306 C 286.199982 357.65332 280.600006 359.706665 274.786652 360.986633 C 276.119995 383.906677 277.533325 406.893372 280.600006 429.666687 C 283.23999 447.333313 286.773346 465.399963 295.853333 481.026642 C 302.506683 493.293335 314.373322 503.026642 328.306671 505.426666 C 338.013336 506.746674 348.626678 506.906647 357.23999 501.506683 C 373.053345 492.319977 380.053345 474.386658 392.359985 461.666687 C 398.17334 455.58667 406.47998 453.119995 414.279999 450.706665 C 427.293335 446.640015 439.613312 438.960022 447.41333 427.573303 C 453.600006 418.386658 456.893341 406.466675 453.293335 395.65332 C 449.41333 383.506653 439.58667 374.466675 429.319977 367.506653 C 397.253326 344.733337 359.613312 331.440002 321.786652 321.82666 C 320.373322 324.453339 319.079987 327.133331 317.58667 329.706665 M 204.026672 331.893341 C 180.520004 345.213348 155.160004 354.706665 130.066666 364.506653 C 121.58667 367.853333 113.079994 371.320007 105.226662 376.013367 C 100.666664 378.853333 96.386665 382.17334 92.640007 386.039978 C 86.986664 392.733337 83.49334 401.47998 84.346672 410.333313 C 85.173332 421.440002 91.333336 431.266663 98.50666 439.453308 C 101.946663 443.453308 105.733337 447.119995 109.959999 450.293335 C 120.653328 459.52002 135.133331 464.013367 143.693329 475.720032 C 151.706665 486.986664 158.346664 499.76001 169.599991 508.23999 C 178.866653 515.640015 191.493332 518.23999 203.053329 516.053345 C 216.266663 512.186707 225.82666 501.23999 232.533325 489.733307 C 243.466675 470.23999 249.559998 448.41333 253.106659 426.453308 C 256.839996 405.34668 257.186676 383.840027 256.58667 362.466675 C 248.026672 361.946655 239.919998 359.186707 231.813339 356.693359 C 228.733337 355.693359 225.933334 357.733337 223.346664 359.093323 C 217.199997 366.880005 211.333328 374.866638 205.013321 382.493347 C 204.840012 381.76001 204.493332 380.306702 204.320007 379.573303 C 204.426682 380.559998 204.626663 382.52002 204.733337 383.506653 C 195.880005 394.733337 186.853333 405.880005 178.613342 417.573303 C 176.119995 419.65332 173.17334 418.706665 173.333328 415.293335 C 184.493332 401.133362 195.159988 386.573303 206.479996 372.533325 C 206.226669 372.266663 205.733337 371.76001 205.479996 371.506653 C 205.946671 371.373352 206.880005 371.119995 207.333328 371 C 210.960007 367.053345 213.733337 362.453308 217.159988 358.34668 C 219.066666 355.746643 221.813339 352.34668 219.733337 349.06665 C 215.82666 344.306671 211.080002 340.279999 207.400009 335.293335 C 210.119995 332.773346 206.093338 331.773346 204.026672 331.893341 Z"/>
        <path id="path8" fill="#040404" stroke="none" d="M 286.706665 89.026672 C 295.800018 85.053345 305.186676 80.159973 315.41333 80.786682 C 325.946686 81.786682 334.866669 88.359985 342.053345 95.693329 C 341.93335 96.58667 341.706665 98.359985 341.58667 99.253326 C 337.040009 100.06665 334.839996 95.386658 331.199982 93.706665 C 324.973328 89.65332 316.946686 90.186646 310.306671 92.893311 C 298.76001 97.453339 288.186676 104.76001 275.773346 106.920013 C 265.360016 108.600006 255.040009 105.34668 245.293335 102.013336 C 235.199997 98.146667 225.426682 92.253357 214.320007 92.093323 C 208.440002 91.813354 202.986679 94.519989 198.213333 97.65332 C 196.026672 99.65332 192.466675 96.626678 194.159988 94.293335 C 202.360001 87.613342 212.946671 83.626648 223.599991 84.06665 C 238.41333 83.893311 251.973328 90.893311 266.41333 93.133331 C 272.573334 93.893341 278.706665 92.159973 284.453339 90.119995 C 284.813324 90.386658 285.519989 90.93335 285.866669 91.200012 C 286.079987 90.65332 286.493317 89.573364 286.706665 89.026672 Z"/>
        <path id="path9" fill="#040404" stroke="none" d="M 418.693329 160.693329 C 432.333344 165.799988 443.213348 178.386658 445.853363 192.82666 C 448.666656 205.373322 446.253326 218.600006 449.946655 231 C 454.58667 244.693329 466.813324 254.17334 471.466675 267.866669 C 475.773315 279.506683 473.226685 292.333344 468.880005 303.559998 C 468.306671 305.813324 466.733307 306.706665 464.119995 306.226654 C 463.666656 298.213348 466.880005 290.199982 464.720001 282.23999 C 463.306671 272.76001 456.426666 265.639984 450.279999 258.839996 C 443.680023 251.613342 437.58667 243.426666 435.079987 233.82666 C 431.58667 217.026672 439.399994 199.679993 433.853363 183.093323 C 431.65332 175.17334 425.359985 169.546661 418.65332 165.333344 C 418.666656 164.17334 418.693329 161.853333 418.693329 160.693329 Z"/>
        <path id="path10" fill="#040404" stroke="none" d="M 90.746666 189.720001 C 95.693329 176.17334 109.213341 168.160004 122.519997 164.58667 C 125.759995 164.720001 125.039993 170.106659 122.133331 170.200012 C 112.599998 173.279999 103.41333 179.946655 100.706665 190.053314 C 95.933327 207.213348 103.813332 224.613342 102.440002 241.933319 C 101.213341 254.320007 92.90667 264.373322 84.50666 272.920013 C 78.239998 279.040009 70.866669 285.119995 68.639999 294 C 65.773338 302.933319 68.400002 312.279999 70.666664 321.013336 C 70.26667 321.800018 69.466667 323.346649 69.066666 324.133331 C 68.066666 324.133331 67.066666 324.146667 66.066666 324.160004 C 64.053337 319.880005 62.253334 315.493317 61.080002 310.906647 C 60.493332 310.653351 59.346664 310.133331 58.759998 309.880005 C 59.119999 309.533325 59.84 308.853333 60.200001 308.519989 C 58.786667 300.679993 58.546665 292.373322 61.506668 284.853333 C 67.799995 267.959991 85.106667 256.813324 87.720001 238.266663 C 89.346672 222.146667 84.559998 205.306671 90.746666 189.720001 Z"/>
        <path id="path11" fill="#040404" stroke="none" d="M 260.199982 254.786652 C 264.026672 251.973328 268.920013 253.519989 273.066681 254.639984 C 279.639984 256.533325 285.533325 260.160004 290.746674 264.533325 C 299.546661 272.906647 305.040009 284.880005 304.786652 297.093353 C 305.013336 307.293335 301.119995 317.440002 294.546661 325.17334 C 286.906647 334.279999 275.466675 340.573334 263.453339 340.746674 C 260.559998 340.866669 260.386658 337.17334 261 335.119995 C 266.133331 333.933319 271.546661 333.533325 276.346649 331.160004 C 288.853333 325.360016 298.186676 312.373322 298.213348 298.386658 C 298.959991 285.959991 292.706665 273.399994 282.453339 266.399994 C 276.453339 261.733337 268.973328 259.973328 261.58667 259.013336 C 261.106659 257.600006 260.666656 256.186676 260.199982 254.786652 Z"/>
        <path id="path12" fill="#040404" stroke="none" d="M 428.613312 393.866638 C 430.093353 393.06665 432.160004 392.093323 433.253326 394.080017 C 437.279999 404.533325 434.106659 416.906677 425.839996 424.386658 C 415.82666 435.119995 401.560028 440.039978 390.06665 448.773315 C 380.93335 456.679993 375.333344 467.613342 367.920013 476.986633 C 362.493317 485.026642 353.640015 490.880005 343.813324 491.41333 C 340.186676 492 333.559998 492.613312 334.666656 486.959991 C 340.17334 486.079987 346.093353 485.946655 350.839996 482.65332 C 356.333344 478.746674 359.34668 472.466675 362.199982 466.573303 C 367.279999 455.546692 373.279999 444.06665 383.880005 437.386658 C 391.839996 432.82666 400.399994 429.373352 408.959991 426.106628 C 407.880005 425.546692 406.813324 424.986633 405.76001 424.440002 C 407.186676 424.293335 408.533325 424.52002 409.813324 425.106628 C 416.946655 421.93335 424.279999 417.279968 427.306671 409.720032 C 429.58667 404.76001 429.306671 399.146667 428.613312 393.866638 Z"/>
        <path id="path13" fill="#040404" stroke="none" d="M 96.626671 393.746643 C 98.040001 393.733337 99.440002 393.853333 100.839996 393.973328 C 100.453331 401.693298 100.013336 410.399963 105.426666 416.640015 C 117.853333 431 139.493332 431.746643 152.066666 445.946655 C 160.506668 455.306702 163.613327 467.773315 168.639999 479.013336 C 173.520004 489.373322 183.693344 495.880005 194.226669 499.47998 C 196.800003 500.106659 200.119995 502.213348 198.440002 505.333344 C 185.186661 505.773315 172.280014 498.693329 164.173325 488.359985 C 153.880005 475.080017 148.426666 457.706665 134.266663 447.666687 C 122.786659 439.893372 109.306671 434.106628 100.880005 422.640015 C 94.706665 414.52002 93.306671 403.253357 96.626671 393.746643 Z"/>
    </g>
</svg>
