<?xml version="1.0" encoding="UTF-8" ?>
<!DOCTYPE svg PUBLIC "-//W3C//DTD SVG 1.1//EN" "http://www.w3.org/Graphics/SVG/1.1/DTD/svg11.dtd">
<svg width="396pt" height="441pt" viewBox="0 0 396 441" version="1.1" xmlns="http://www.w3.org/2000/svg">
<g id="#ffffffff">
<path fill="#ffffff" opacity="1.00" d=" M 135.43 39.30 C 152.61 33.13 170.69 29.27 188.93 28.60 C 197.63 27.10 206.33 28.86 215.04 29.00 C 234.87 30.97 254.42 36.05 272.61 44.25 C 276.67 46.14 280.65 48.20 284.66 50.21 C 319.29 69.08 347.56 99.37 363.74 135.37 C 374.81 159.33 379.79 185.77 379.97 212.07 C 379.28 224.83 378.31 237.62 375.32 250.09 C 364.75 297.95 333.49 340.49 291.59 365.73 C 289.21 366.97 286.91 368.35 284.63 369.75 C 283.28 370.38 281.96 371.06 280.65 371.75 C 278.63 372.73 276.62 373.73 274.62 374.75 C 271.88 375.95 269.14 377.13 266.39 378.28 C 263.76 379.30 261.15 380.39 258.48 381.31 C 257.18 381.80 255.84 382.21 254.54 382.73 C 241.36 386.91 227.72 389.71 214.00 391.01 C 206.68 390.59 199.40 392.96 192.11 391.48 C 187.10 390.47 181.88 391.74 176.96 390.27 C 165.58 389.24 154.33 386.65 143.43 383.21 C 142.96 383.10 142.02 382.87 141.54 382.75 C 140.55 382.31 139.54 381.97 138.49 381.71 C 135.55 380.52 132.57 379.44 129.62 378.28 C 126.87 377.09 124.11 375.94 121.37 374.73 C 119.11 373.56 116.81 372.45 114.54 371.29 C 84.80 355.98 59.65 332.13 42.26 303.60 C 41.01 301.23 39.60 298.95 38.24 296.66 C 37.99 296.16 37.50 295.16 37.25 294.66 C 35.90 292.00 34.56 289.34 33.24 286.66 C 31.84 283.65 30.58 280.58 29.28 277.54 C 28.32 274.86 27.24 272.22 26.24 269.56 C 16.51 241.21 13.51 210.50 18.47 180.90 C 23.65 148.68 37.69 117.82 58.94 93.01 C 73.62 75.72 91.41 61.09 111.33 50.22 C 115.34 48.21 119.33 46.14 123.39 44.24 C 125.72 43.22 128.08 42.26 130.42 41.26 C 132.11 40.66 133.79 40.01 135.43 39.30 M 128.31 56.40 C 123.59 65.88 123.41 77.14 126.59 87.13 C 129.26 94.43 133.15 101.20 136.65 108.12 C 146.81 126.73 158.20 144.63 169.13 162.78 C 159.27 151.32 150.52 138.95 140.80 127.37 C 129.11 113.08 114.92 99.66 96.95 93.98 C 87.20 90.75 76.42 93.58 68.13 99.19 C 60.01 104.86 53.00 112.80 50.29 122.48 C 47.96 131.78 47.56 141.45 47.65 151.00 C 47.66 159.09 45.78 167.16 42.29 174.46 C 40.39 178.32 37.46 181.56 35.58 185.43 C 29.99 197.05 26.91 210.23 28.93 223.11 C 30.09 229.97 33.77 236.19 38.65 241.06 C 46.60 249.63 58.61 253.25 70.03 253.34 C 88.21 253.44 105.73 247.67 122.56 241.34 C 132.67 237.29 142.70 233.03 152.52 228.29 C 152.52 228.79 152.52 229.78 152.52 230.28 C 145.36 233.82 138.26 237.52 130.92 240.69 C 115.72 247.66 99.76 252.84 84.55 259.79 C 74.37 264.59 64.15 271.77 60.38 282.87 C 56.16 294.37 60.10 307.27 67.26 316.69 C 72.69 323.57 79.03 329.82 86.40 334.61 C 93.01 339.13 101.01 342.34 105.47 349.35 C 111.14 357.63 116.22 366.60 124.20 372.94 C 133.52 380.65 146.74 383.81 158.38 380.19 C 162.96 378.51 167.10 375.81 170.92 372.80 C 174.85 368.97 178.48 364.77 181.20 359.98 C 181.60 360.80 181.99 361.62 182.39 362.44 C 182.57 361.32 182.38 360.31 181.82 359.41 C 183.33 356.47 184.99 353.60 186.44 350.63 C 184.58 349.50 185.73 347.59 186.69 346.30 C 187.00 346.67 187.62 347.41 187.93 347.78 C 198.85 320.76 202.56 291.21 201.44 262.23 C 202.25 262.89 202.83 263.84 202.57 264.94 C 201.75 271.28 203.30 277.60 203.29 283.95 C 204.83 302.81 206.50 321.97 212.98 339.90 C 217.29 351.89 224.63 363.68 236.45 369.42 C 247.91 374.94 262.25 375.58 273.57 369.35 C 277.37 367.03 280.76 364.08 283.87 360.91 C 290.69 353.57 295.12 344.32 302.40 337.39 C 308.29 332.63 316.24 332.03 322.86 328.66 C 336.09 322.68 347.41 310.83 349.72 296.13 C 351.95 284.07 345.59 272.16 336.89 264.20 C 313.40 244.47 284.35 232.67 255.01 224.69 C 251.64 223.61 248.05 223.26 244.83 221.72 C 248.65 221.87 252.33 222.98 256.01 223.90 C 276.01 228.61 295.39 235.67 315.55 239.78 C 327.05 242.02 339.61 242.94 350.49 237.78 C 361.84 232.84 369.65 221.35 370.78 209.10 C 371.98 196.39 370.47 183.05 364.62 171.56 C 361.86 165.95 357.37 161.18 355.78 155.03 C 353.51 140.84 351.37 126.29 345.04 113.23 C 339.23 103.10 328.96 94.76 317.03 93.80 C 306.07 93.18 295.51 97.64 286.55 103.62 C 273.32 112.29 262.70 124.19 252.36 136.00 C 261.73 121.88 271.40 107.52 276.23 91.09 C 279.92 78.97 278.34 65.32 271.74 54.48 C 264.95 43.44 252.64 36.51 239.93 34.95 C 226.29 33.63 213.33 39.14 200.10 41.45 C 193.30 42.71 186.81 39.69 180.38 38.01 C 172.42 35.91 164.04 33.48 155.80 35.42 C 144.31 38.24 133.69 45.70 128.31 56.40 Z" />
<path fill="#ffffff" opacity="1.00" d=" M 133.93 60.31 C 138.88 50.31 149.01 43.09 160.04 41.53 C 172.48 40.89 183.76 47.55 195.98 48.55 C 209.59 47.95 222.29 41.44 235.99 41.49 C 247.75 41.92 259.69 47.77 266.00 57.94 C 271.59 67.11 272.95 78.72 269.84 88.98 C 266.08 101.69 259.14 113.10 252.07 124.20 C 242.45 138.81 231.47 152.47 220.17 165.79 C 215.10 163.68 209.36 162.57 205.17 158.83 C 201.31 154.97 201.61 149.07 201.59 144.02 C 201.49 127.52 201.84 111.00 201.42 94.51 C 199.87 94.51 197.51 94.80 197.70 96.90 C 197.70 114.27 197.71 131.64 197.71 149.01 C 197.84 151.54 197.05 153.96 196.37 156.36 C 192.15 162.04 184.46 161.99 178.47 164.64 C 163.58 140.88 148.51 117.14 136.00 92.01 C 130.89 82.43 129.30 70.36 133.93 60.31 M 217.28 54.02 C 217.12 54.43 216.81 55.24 216.65 55.65 C 216.39 55.45 215.86 55.04 215.59 54.84 C 211.28 56.37 206.68 57.67 202.06 57.10 C 191.23 55.42 181.06 50.17 169.95 50.30 C 161.96 49.97 154.02 52.96 147.87 57.97 C 146.60 59.72 149.27 61.99 150.91 60.49 C 154.49 58.14 158.58 56.11 162.99 56.32 C 171.32 56.44 178.65 60.86 186.22 63.76 C 193.53 66.26 201.27 68.70 209.08 67.44 C 218.39 65.82 226.32 60.34 234.98 56.92 C 239.96 54.89 245.98 54.49 250.65 57.53 C 253.38 58.79 255.03 62.30 258.44 61.69 C 258.53 61.02 258.70 59.69 258.79 59.02 C 253.40 53.52 246.71 48.59 238.81 47.84 C 231.14 47.37 224.10 51.04 217.28 54.02 Z" />
<path fill="#ffffff" opacity="1.00" d=" M 70.82 105.73 C 77.52 100.58 86.64 97.81 94.91 100.41 C 107.83 104.61 118.74 113.27 127.99 122.98 C 134.26 129.82 140.02 137.10 145.77 144.38 C 152.74 153.59 159.91 162.66 167.69 171.20 C 162.13 175.09 157.97 180.61 154.56 186.41 C 153.15 188.75 152.06 191.42 149.84 193.14 C 148.07 194.18 145.88 193.69 144.00 193.27 C 128.28 188.84 112.69 183.94 96.99 179.44 C 95.78 179.09 94.51 179.18 93.27 179.14 C 93.29 180.22 93.31 181.30 93.33 182.39 C 107.88 186.72 122.44 191.04 136.99 195.36 C 140.36 196.48 143.92 197.18 147.01 198.98 C 149.25 201.41 148.57 204.96 148.67 207.96 C 148.44 212.68 149.04 217.40 150.23 221.96 C 140.28 226.59 130.28 231.09 120.02 234.97 C 103.39 241.29 86.01 247.33 67.97 246.75 C 57.69 246.52 47.70 241.83 41.09 233.94 C 38.44 230.05 35.98 225.90 35.48 221.13 C 34.15 210.47 36.50 199.61 40.99 189.94 C 43.16 185.02 46.89 181.00 49.04 176.06 C 52.79 167.60 54.66 158.28 54.39 149.02 C 54.57 139.23 54.54 128.97 58.54 119.84 C 61.28 114.26 65.61 109.53 70.60 105.87 C 70.59 105.43 70.58 104.55 70.57 104.10 L 70.82 105.73 M 70.31 129.54 C 65.67 141.23 69.26 153.86 68.04 165.95 C 66.08 179.86 53.10 188.22 48.38 200.89 C 46.16 206.53 46.34 212.76 47.40 218.64 C 47.13 218.89 46.59 219.40 46.32 219.66 C 46.76 219.85 47.62 220.24 48.06 220.43 C 48.94 223.87 50.29 227.16 51.80 230.37 C 52.55 230.36 53.30 230.35 54.05 230.35 C 54.35 229.76 54.95 228.60 55.25 228.01 C 53.55 221.46 51.58 214.45 53.73 207.75 C 55.40 201.09 60.93 196.53 65.63 191.94 C 71.93 185.53 78.16 177.99 79.08 168.70 C 80.11 155.71 74.20 142.66 77.78 129.79 C 79.81 122.21 86.70 117.21 93.85 114.90 C 96.03 114.83 96.57 110.79 94.14 110.69 C 84.16 113.37 74.02 119.38 70.31 129.54 Z" />
<path fill="#ffffff" opacity="1.00" d=" M 287.42 111.28 C 294.98 105.88 303.58 101.25 313.01 100.56 C 318.26 100.17 323.37 101.88 327.88 104.46 C 328.99 103.70 330.18 103.30 331.61 103.62 C 330.56 104.03 329.52 104.42 328.49 104.82 C 333.16 108.70 337.96 112.99 340.19 118.81 C 343.73 127.20 345.68 136.15 347.35 145.06 C 348.49 150.90 348.47 157.12 351.40 162.46 C 355.60 170.14 361.15 177.35 362.77 186.16 C 364.80 196.70 365.80 208.16 361.38 218.25 C 357.36 227.03 348.47 232.89 339.04 234.26 C 328.32 235.86 317.49 233.53 307.10 230.97 C 287.29 225.85 267.86 219.19 247.79 215.09 C 247.53 214.93 247.01 214.60 246.75 214.44 C 247.74 208.66 245.91 202.88 246.63 197.10 C 247.62 193.90 251.01 192.39 253.76 190.95 C 269.08 183.69 284.51 176.64 299.84 169.39 C 299.68 167.87 299.01 166.64 297.83 165.70 C 298.76 165.30 299.70 164.91 300.64 164.52 C 299.90 164.15 299.18 163.77 298.43 163.45 C 297.77 164.75 297.33 166.38 295.77 166.88 C 281.80 173.36 267.91 180.02 253.94 186.51 C 251.33 187.75 248.59 188.67 245.81 189.42 C 243.60 188.46 241.54 187.04 240.31 184.92 C 237.93 180.94 234.63 177.66 231.70 174.11 C 234.08 170.97 236.41 167.78 238.73 164.57 C 248.34 151.74 258.00 138.86 269.28 127.41 C 275.02 121.72 280.68 115.82 287.42 111.28 M 316.27 107.77 C 316.27 108.64 316.25 110.38 316.24 111.25 C 321.27 114.41 325.99 118.63 327.64 124.57 C 331.80 137.01 325.94 150.02 328.56 162.62 C 330.44 169.82 335.01 175.96 339.96 181.38 C 344.57 186.48 349.73 191.82 350.79 198.93 C 352.41 204.90 350.00 210.91 350.34 216.92 C 352.30 217.28 353.48 216.61 353.91 214.92 C 357.17 206.50 359.08 196.88 355.85 188.15 C 352.36 177.88 343.19 170.77 339.71 160.50 C 336.94 151.20 338.75 141.28 336.64 131.87 C 334.66 121.04 326.50 111.60 316.27 107.77 Z" />
<path fill="#ffffff" opacity="1.00" d=" M 168.60 180.52 C 176.59 172.67 187.77 168.04 199.02 168.49 C 216.81 168.67 233.30 181.77 237.87 198.91 C 240.75 209.05 239.48 220.26 234.42 229.52 C 229.67 238.21 221.85 245.29 212.53 248.77 C 198.80 254.16 182.44 251.30 171.17 241.82 C 161.98 234.00 156.24 222.13 156.39 210.02 C 156.13 199.05 160.95 188.27 168.60 180.52 M 197.40 178.34 C 197.75 179.39 198.08 180.45 198.44 181.51 C 203.98 182.23 209.59 183.55 214.09 187.05 C 221.78 192.30 226.47 201.72 225.91 211.04 C 225.89 221.53 218.89 231.27 209.51 235.62 C 205.91 237.40 201.85 237.70 198.00 238.59 C 197.54 240.13 197.67 242.90 199.84 242.81 C 208.85 242.68 217.43 237.96 223.16 231.13 C 228.09 225.33 231.01 217.72 230.84 210.07 C 231.03 200.91 226.91 191.93 220.31 185.65 C 216.40 182.37 211.98 179.65 207.05 178.23 C 203.94 177.39 200.27 176.23 197.40 178.34 Z" />
<path fill="#ffffff" opacity="1.00" d=" M 240.44 234.53 C 241.56 232.60 242.53 230.59 243.59 228.62 C 271.96 235.83 300.19 245.80 324.24 262.88 C 331.94 268.10 339.31 274.88 342.22 283.99 C 344.92 292.10 342.45 301.04 337.81 307.93 C 331.96 316.47 322.72 322.23 312.96 325.28 C 307.11 327.09 300.88 328.94 296.52 333.50 C 287.29 343.04 282.04 356.49 270.18 363.38 C 263.72 367.43 255.76 367.31 248.48 366.32 C 238.03 364.52 229.13 357.22 224.14 348.02 C 217.33 336.30 214.68 322.75 212.70 309.50 C 210.40 292.42 209.34 275.18 208.34 257.99 C 212.70 257.03 216.90 255.49 220.89 253.51 C 223.88 252.06 227.90 251.26 230.66 253.59 C 233.57 255.63 235.93 258.32 238.19 261.05 C 248.68 272.82 259.04 284.71 269.50 296.51 C 270.29 297.66 271.71 297.88 272.93 298.37 C 273.16 297.76 273.62 296.54 273.85 295.93 C 271.74 292.25 268.29 289.61 265.74 286.26 C 257.08 276.55 248.50 266.78 239.88 257.03 C 237.13 254.18 234.88 250.85 233.58 247.09 C 234.46 242.21 238.13 238.71 240.44 234.53 M 323.71 282.65 C 324.23 286.61 324.44 290.82 322.73 294.54 C 320.46 300.21 314.96 303.70 309.61 306.08 C 308.65 305.64 307.64 305.47 306.57 305.58 C 307.36 305.99 308.16 306.41 308.97 306.83 C 302.55 309.28 296.13 311.87 290.16 315.29 C 282.21 320.30 277.71 328.91 273.90 337.18 C 271.76 341.60 269.50 346.31 265.38 349.24 C 261.82 351.71 257.38 351.81 253.25 352.47 C 252.42 356.71 257.39 356.25 260.11 355.81 C 267.48 355.41 274.12 351.02 278.19 344.99 C 283.75 337.96 287.95 329.76 294.80 323.83 C 303.42 317.28 314.12 313.59 321.63 305.54 C 327.83 299.93 330.21 290.65 327.19 282.81 C 326.37 281.32 324.82 282.05 323.71 282.65 Z" />
<path fill="#ffffff" opacity="1.00" d=" M 155.27 236.17 C 156.82 236.08 159.84 236.83 157.80 238.72 C 160.56 242.46 164.12 245.48 167.05 249.05 C 168.61 251.51 166.55 254.06 165.12 256.01 C 162.55 259.09 160.47 262.54 157.75 265.50 C 157.41 265.59 156.71 265.78 156.36 265.88 C 156.55 266.07 156.92 266.45 157.11 266.65 C 148.62 277.18 140.62 288.10 132.25 298.72 C 132.13 301.28 134.34 301.99 136.21 300.43 C 142.39 291.66 149.16 283.30 155.80 274.88 C 155.72 274.14 155.57 272.67 155.49 271.93 C 155.62 272.48 155.88 273.57 156.01 274.12 C 160.75 268.40 165.15 262.41 169.76 256.57 C 171.70 255.55 173.80 254.02 176.11 254.77 C 182.19 256.64 188.27 258.71 194.69 259.10 C 195.14 275.13 194.88 291.26 192.08 307.09 C 189.42 323.56 184.85 339.93 176.65 354.55 C 171.62 363.18 164.45 371.39 154.54 374.29 C 145.87 375.93 136.40 373.98 129.45 368.43 C 121.01 362.07 116.03 352.49 110.02 344.04 C 103.60 335.26 92.74 331.89 84.72 324.97 C 81.55 322.59 78.71 319.84 76.13 316.84 C 70.75 310.70 66.13 303.33 65.51 295.00 C 64.87 288.36 67.49 281.80 71.73 276.78 C 74.54 273.88 77.75 271.39 81.17 269.26 C 87.06 265.74 93.44 263.14 99.80 260.63 C 118.62 253.28 137.64 246.16 155.27 236.17 M 74.72 282.56 C 72.23 289.69 73.28 298.14 77.91 304.23 C 84.23 312.83 94.34 317.17 102.95 323.00 C 113.57 330.53 117.66 343.56 125.38 353.52 C 131.46 361.27 141.14 366.58 151.08 366.25 C 152.34 363.91 149.85 362.33 147.92 361.86 C 140.02 359.16 132.39 354.28 128.73 346.51 C 124.96 338.08 122.63 328.73 116.30 321.71 C 106.87 311.06 90.64 310.50 81.32 299.73 C 77.26 295.05 77.59 288.52 77.88 282.73 C 76.83 282.64 75.78 282.55 74.72 282.56 Z" />
</g>
<g id="#040404ff">
<path fill="#040404" opacity="1.00" d=" M 128.31 56.40 C 133.69 45.70 144.31 38.24 155.80 35.42 C 164.04 33.48 172.42 35.91 180.38 38.01 C 186.81 39.69 193.30 42.71 200.10 41.45 C 213.33 39.14 226.29 33.63 239.93 34.95 C 252.64 36.51 264.95 43.44 271.74 54.48 C 278.34 65.32 279.92 78.97 276.23 91.09 C 271.40 107.52 261.73 121.88 252.36 136.00 C 262.70 124.19 273.32 112.29 286.55 103.62 C 295.51 97.64 306.07 93.18 317.03 93.80 C 328.96 94.76 339.23 103.10 345.04 113.23 C 351.37 126.29 353.51 140.84 355.78 155.03 C 357.37 161.18 361.86 165.95 364.62 171.56 C 370.47 183.05 371.98 196.39 370.78 209.10 C 369.65 221.35 361.84 232.84 350.49 237.78 C 339.61 242.94 327.05 242.02 315.55 239.78 C 295.39 235.67 276.01 228.61 256.01 223.90 C 252.33 222.98 248.65 221.87 244.83 221.72 C 248.05 223.26 251.64 223.61 255.01 224.69 C 284.35 232.67 313.40 244.47 336.89 264.20 C 345.59 272.16 351.95 284.07 349.72 296.13 C 347.41 310.83 336.09 322.68 322.86 328.66 C 316.24 332.03 308.29 332.63 302.40 337.39 C 295.12 344.32 290.69 353.57 283.87 360.91 C 280.76 364.08 277.37 367.03 273.57 369.35 C 262.25 375.58 247.91 374.94 236.45 369.42 C 224.63 363.68 217.29 351.89 212.98 339.90 C 206.50 321.97 204.83 302.81 203.29 283.95 C 203.30 277.60 201.75 271.28 202.57 264.94 C 202.83 263.84 202.25 262.89 201.44 262.23 C 202.56 291.21 198.85 320.76 187.93 347.78 C 187.62 347.41 187.00 346.67 186.69 346.30 C 185.73 347.59 184.58 349.50 186.44 350.63 C 184.99 353.60 183.33 356.47 181.82 359.41 C 182.38 360.31 182.57 361.32 182.39 362.44 C 181.99 361.62 181.60 360.80 181.20 359.98 C 178.48 364.77 174.85 368.97 170.92 372.80 C 167.10 375.81 162.96 378.51 158.38 380.19 C 146.74 383.81 133.52 380.65 124.20 372.94 C 116.22 366.60 111.14 357.63 105.47 349.35 C 101.01 342.34 93.01 339.13 86.40 334.61 C 79.03 329.82 72.69 323.57 67.26 316.69 C 60.10 307.27 56.16 294.37 60.38 282.87 C 64.15 271.77 74.37 264.59 84.55 259.79 C 99.76 252.84 115.72 247.66 130.92 240.69 C 138.26 237.52 145.36 233.82 152.52 230.28 C 152.52 229.78 152.52 228.79 152.52 228.29 C 142.70 233.03 132.67 237.29 122.56 241.34 C 105.73 247.67 88.21 253.44 70.03 253.34 C 58.61 253.25 46.60 249.63 38.65 241.06 C 33.77 236.19 30.09 229.97 28.93 223.11 C 26.91 210.23 29.99 197.05 35.58 185.43 C 37.46 181.56 40.39 178.32 42.29 174.46 C 45.78 167.16 47.66 159.09 47.65 151.00 C 47.56 141.45 47.96 131.78 50.29 122.48 C 53.00 112.80 60.01 104.86 68.13 99.19 C 76.42 93.58 87.20 90.75 96.95 93.98 C 114.92 99.66 129.11 113.08 140.80 127.37 C 150.52 138.95 159.27 151.32 169.13 162.78 C 158.20 144.63 146.81 126.73 136.65 108.12 C 133.15 101.20 129.26 94.43 126.59 87.13 C 123.41 77.14 123.59 65.88 128.31 56.40 M 133.93 60.31 C 129.30 70.36 130.89 82.43 136.00 92.01 C 148.51 117.14 163.58 140.88 178.47 164.64 C 184.46 161.99 192.15 162.04 196.37 156.36 C 197.05 153.96 197.84 151.54 197.71 149.01 C 197.71 131.64 197.70 114.27 197.70 96.90 C 197.51 94.80 199.87 94.51 201.42 94.51 C 201.84 111.00 201.49 127.52 201.59 144.02 C 201.61 149.07 201.31 154.97 205.17 158.83 C 209.36 162.57 215.10 163.68 220.17 165.79 C 231.47 152.47 242.45 138.81 252.07 124.20 C 259.14 113.10 266.08 101.69 269.84 88.98 C 272.95 78.72 271.59 67.11 266.00 57.94 C 259.69 47.77 247.75 41.92 235.99 41.49 C 222.29 41.44 209.59 47.95 195.98 48.55 C 183.76 47.55 172.48 40.89 160.04 41.53 C 149.01 43.09 138.88 50.31 133.93 60.31 M 70.82 105.73 L 70.57 104.10 C 70.58 104.55 70.59 105.43 70.60 105.87 C 65.61 109.53 61.28 114.26 58.54 119.84 C 54.54 128.97 54.57 139.23 54.39 149.02 C 54.66 158.28 52.79 167.60 49.04 176.06 C 46.89 181.00 43.16 185.02 40.99 189.94 C 36.50 199.61 34.15 210.47 35.48 221.13 C 35.98 225.90 38.44 230.05 41.09 233.94 C 47.70 241.83 57.69 246.52 67.97 246.75 C 86.01 247.33 103.39 241.29 120.02 234.97 C 130.28 231.09 140.28 226.59 150.23 221.96 C 149.04 217.40 148.44 212.68 148.67 207.96 C 148.57 204.96 149.25 201.41 147.01 198.98 C 143.92 197.18 140.36 196.48 136.99 195.36 C 122.44 191.04 107.88 186.72 93.33 182.39 C 93.31 181.30 93.29 180.22 93.27 179.14 C 94.51 179.18 95.78 179.09 96.99 179.44 C 112.69 183.94 128.28 188.84 144.00 193.27 C 145.88 193.69 148.07 194.18 149.84 193.14 C 152.06 191.42 153.15 188.75 154.56 186.41 C 157.97 180.61 162.13 175.09 167.69 171.20 C 159.91 162.66 152.74 153.59 145.77 144.38 C 140.02 137.10 134.26 129.82 127.99 122.98 C 118.74 113.27 107.83 104.61 94.91 100.41 C 86.64 97.81 77.52 100.58 70.82 105.73 M 287.42 111.28 C 280.68 115.82 275.02 121.72 269.28 127.41 C 258.00 138.86 248.34 151.74 238.73 164.57 C 236.41 167.78 234.08 170.97 231.70 174.11 C 234.63 177.66 237.93 180.94 240.31 184.92 C 241.54 187.04 243.60 188.46 245.81 189.42 C 248.59 188.67 251.33 187.75 253.94 186.51 C 267.91 180.02 281.80 173.36 295.77 166.88 C 297.33 166.38 297.77 164.75 298.43 163.45 C 299.18 163.77 299.90 164.15 300.64 164.52 C 299.70 164.91 298.76 165.30 297.83 165.70 C 299.01 166.64 299.68 167.87 299.84 169.39 C 284.51 176.64 269.08 183.69 253.76 190.95 C 251.01 192.39 247.62 193.90 246.63 197.10 C 245.91 202.88 247.74 208.66 246.75 214.44 C 247.01 214.60 247.53 214.93 247.79 215.09 C 267.86 219.19 287.29 225.85 307.10 230.97 C 317.49 233.53 328.32 235.86 339.04 234.26 C 348.47 232.89 357.36 227.03 361.38 218.25 C 365.80 208.16 364.80 196.70 362.77 186.16 C 361.15 177.35 355.60 170.14 351.40 162.46 C 348.47 157.12 348.49 150.90 347.35 145.06 C 345.68 136.15 343.73 127.20 340.19 118.81 C 337.96 112.99 333.16 108.70 328.49 104.82 C 329.52 104.42 330.56 104.03 331.61 103.62 C 330.18 103.30 328.99 103.70 327.88 104.46 C 323.37 101.88 318.26 100.17 313.01 100.56 C 303.58 101.25 294.98 105.88 287.42 111.28 M 168.60 180.52 C 160.95 188.27 156.13 199.05 156.39 210.02 C 156.24 222.13 161.98 234.00 171.17 241.82 C 182.44 251.30 198.80 254.16 212.53 248.77 C 221.85 245.29 229.67 238.21 234.42 229.52 C 239.48 220.26 240.75 209.05 237.87 198.91 C 233.30 181.77 216.81 168.67 199.02 168.49 C 187.77 168.04 176.59 172.67 168.60 180.52 M 240.44 234.53 C 238.13 238.71 234.46 242.21 233.58 247.09 C 234.88 250.85 237.13 254.18 239.88 257.03 C 248.50 266.78 257.08 276.55 265.74 286.26 C 268.29 289.61 271.74 292.25 273.85 295.93 C 273.62 296.54 273.16 297.76 272.93 298.37 C 271.71 297.88 270.29 297.66 269.50 296.51 C 259.04 284.71 248.68 272.82 238.19 261.05 C 235.93 258.32 233.57 255.63 230.66 253.59 C 227.90 251.26 223.88 252.06 220.89 253.51 C 216.90 255.49 212.70 257.03 208.34 257.99 C 209.34 275.18 210.40 292.42 212.70 309.50 C 214.68 322.75 217.33 336.30 224.14 348.02 C 229.13 357.22 238.03 364.52 248.48 366.32 C 255.76 367.31 263.72 367.43 270.18 363.38 C 282.04 356.49 287.29 343.04 296.52 333.50 C 300.88 328.94 307.11 327.09 312.96 325.28 C 322.72 322.23 331.96 316.47 337.81 307.93 C 342.45 301.04 344.92 292.10 342.22 283.99 C 339.31 274.88 331.94 268.10 324.24 262.88 C 300.19 245.80 271.96 235.83 243.59 228.62 C 242.53 230.59 241.56 232.60 240.44 234.53 M 155.27 236.17 C 137.64 246.16 118.62 253.28 99.80 260.63 C 93.44 263.14 87.06 265.74 81.17 269.26 C 77.75 271.39 74.54 273.88 71.73 276.78 C 67.49 281.80 64.87 288.36 65.51 295.00 C 66.13 303.33 70.75 310.70 76.13 316.84 C 78.71 319.84 81.55 322.59 84.72 324.97 C 92.74 331.89 103.60 335.26 110.02 344.04 C 116.03 352.49 121.01 362.07 129.45 368.43 C 136.40 373.98 145.87 375.93 154.54 374.29 C 164.45 371.39 171.62 363.18 176.65 354.55 C 184.85 339.93 189.42 323.56 192.08 307.09 C 194.88 291.26 195.14 275.13 194.69 259.10 C 188.27 258.71 182.19 256.64 176.11 254.77 C 173.80 254.02 171.70 255.55 169.76 256.57 C 165.15 262.41 160.75 268.40 156.01 274.12 C 155.88 273.57 155.62 272.48 155.49 271.93 C 155.57 272.67 155.72 274.14 155.80 274.88 C 149.16 283.30 142.39 291.66 136.21 300.43 C 134.34 301.99 132.13 301.28 132.25 298.72 C 140.62 288.10 148.62 277.18 157.11 266.65 C 156.92 266.45 156.55 266.07 156.36 265.88 C 156.71 265.78 157.41 265.59 157.75 265.50 C 160.47 262.54 162.55 259.09 165.12 256.01 C 166.55 254.06 168.61 251.51 167.05 249.05 C 164.12 245.48 160.56 242.46 157.80 238.72 C 159.84 236.83 156.82 236.08 155.27 236.17 Z" />
<path fill="#040404" opacity="1.00" d=" M 217.28 54.02 C 224.10 51.04 231.14 47.37 238.81 47.84 C 246.71 48.59 253.40 53.52 258.79 59.02 C 258.70 59.69 258.53 61.02 258.44 61.69 C 255.03 62.30 253.38 58.79 250.65 57.53 C 245.98 54.49 239.96 54.89 234.98 56.92 C 226.32 60.34 218.39 65.82 209.08 67.44 C 201.27 68.70 193.53 66.26 186.22 63.76 C 178.65 60.86 171.32 56.44 162.99 56.32 C 158.58 56.11 154.49 58.14 150.91 60.49 C 149.27 61.99 146.60 59.72 147.87 57.97 C 154.02 52.96 161.96 49.97 169.95 50.30 C 181.06 50.17 191.23 55.42 202.06 57.10 C 206.68 57.67 211.28 56.37 215.59 54.84 C 215.86 55.04 216.39 55.45 216.65 55.65 C 216.81 55.24 217.12 54.43 217.28 54.02 Z" />
<path fill="#040404" opacity="1.00" d=" M 316.27 107.77 C 326.50 111.60 334.66 121.04 336.64 131.87 C 338.75 141.28 336.94 151.20 339.71 160.50 C 343.19 170.77 352.36 177.88 355.85 188.15 C 359.08 196.88 357.17 206.50 353.91 214.92 C 353.48 216.61 352.30 217.28 350.34 216.92 C 350.00 210.91 352.41 204.90 350.79 198.93 C 349.73 191.82 344.57 186.48 339.96 181.38 C 335.01 175.96 330.44 169.82 328.56 162.62 C 325.94 150.02 331.80 137.01 327.64 124.57 C 325.99 118.63 321.27 114.41 316.24 111.25 C 316.25 110.38 316.27 108.64 316.27 107.77 Z" />
<path fill="#040404" opacity="1.00" d=" M 70.31 129.54 C 74.02 119.38 84.16 113.37 94.14 110.69 C 96.57 110.79 96.03 114.83 93.85 114.90 C 86.70 117.21 79.81 122.21 77.78 129.79 C 74.20 142.66 80.11 155.71 79.08 168.70 C 78.16 177.99 71.93 185.53 65.63 191.94 C 60.93 196.53 55.40 201.09 53.73 207.75 C 51.58 214.45 53.55 221.46 55.25 228.01 C 54.95 228.60 54.35 229.76 54.05 230.35 C 53.30 230.35 52.55 230.36 51.80 230.37 C 50.29 227.16 48.94 223.87 48.06 220.43 C 47.62 220.24 46.76 219.85 46.32 219.66 C 46.59 219.40 47.13 218.89 47.40 218.64 C 46.34 212.76 46.16 206.53 48.38 200.89 C 53.10 188.22 66.08 179.86 68.04 165.95 C 69.26 153.86 65.67 141.23 70.31 129.54 Z" />
<path fill="#040404" opacity="1.00" d=" M 197.40 178.34 C 200.27 176.23 203.94 177.39 207.05 178.23 C 211.98 179.65 216.40 182.37 220.31 185.65 C 226.91 191.93 231.03 200.91 230.84 210.07 C 231.01 217.72 228.09 225.33 223.16 231.13 C 217.43 237.96 208.85 242.68 199.84 242.81 C 197.67 242.90 197.54 240.13 198.00 238.59 C 201.85 237.70 205.91 237.40 209.51 235.62 C 218.89 231.27 225.89 221.53 225.91 211.04 C 226.47 201.72 221.78 192.30 214.09 187.05 C 209.59 183.55 203.98 182.23 198.44 181.51 C 198.08 180.45 197.75 179.39 197.40 178.34 Z" />
<path fill="#040404" opacity="1.00" d=" M 323.71 282.65 C 324.82 282.05 326.37 281.32 327.19 282.81 C 330.21 290.65 327.83 299.93 321.63 305.54 C 314.12 313.59 303.42 317.28 294.80 323.83 C 287.95 329.76 283.75 337.96 278.19 344.99 C 274.12 351.02 267.48 355.41 260.11 355.81 C 257.39 356.25 252.42 356.71 253.25 352.47 C 257.38 351.81 261.82 351.71 265.38 349.24 C 269.50 346.31 271.76 341.60 273.90 337.18 C 277.71 328.91 282.21 320.30 290.16 315.29 C 296.13 311.87 302.55 309.28 308.97 306.83 C 308.16 306.41 307.36 305.99 306.57 305.58 C 307.64 305.47 308.65 305.64 309.61 306.08 C 314.96 303.70 320.46 300.21 322.73 294.54 C 324.44 290.82 324.23 286.61 323.71 282.65 Z" />
<path fill="#040404" opacity="1.00" d=" M 74.72 282.56 C 75.78 282.55 76.83 282.64 77.88 282.73 C 77.59 288.52 77.26 295.05 81.32 299.73 C 90.64 310.50 106.87 311.06 116.30 321.71 C 122.63 328.73 124.96 338.08 128.73 346.51 C 132.39 354.28 140.02 359.16 147.92 361.86 C 149.85 362.33 152.34 363.91 151.08 366.25 C 141.14 366.58 131.46 361.27 125.38 353.52 C 117.66 343.56 113.57 330.53 102.95 323.00 C 94.34 317.17 84.23 312.83 77.91 304.23 C 73.28 298.14 72.23 289.69 74.72 282.56 Z" />
</g>
</svg>
