<?xml version="1.0" encoding="UTF-8" ?>
<!DOCTYPE svg PUBLIC "-//W3C//DTD SVG 1.1//EN" "http://www.w3.org/Graphics/SVG/1.1/DTD/svg11.dtd">
<svg width="352pt" height="359pt" viewBox="0 0 352 359" version="1.1" xmlns="http://www.w3.org/2000/svg">
<g id="#000000ff">
<path fill="#000000" opacity="1.00" d=" M 0.00 0.00 L 352.00 0.00 L 352.00 359.00 L 0.00 359.00 L 0.00 0.00 M 104.32 31.49 C 99.81 42.02 100.65 54.31 105.30 64.63 C 115.53 86.95 129.22 107.41 141.45 128.62 C 140.01 128.14 138.91 127.18 138.09 125.95 C 129.68 115.07 121.36 104.10 112.24 93.81 C 101.79 82.32 89.45 71.80 74.39 67.05 C 64.48 63.74 53.39 66.37 44.97 72.20 C 36.44 78.34 28.83 86.89 26.77 97.49 C 24.38 107.29 24.89 117.45 24.41 127.44 C 23.91 137.42 20.41 147.25 14.29 155.17 C 7.90 166.55 4.31 179.87 5.41 192.96 C 6.42 205.18 14.78 215.98 25.49 221.49 C 36.08 227.04 48.39 226.75 59.95 225.61 C 78.28 222.85 95.75 216.25 112.70 208.97 C 117.06 207.32 121.12 204.91 125.63 203.63 C 124.99 206.03 122.53 206.66 120.65 207.75 C 108.45 213.58 96.02 218.87 83.42 223.77 C 70.62 228.81 57.04 233.18 46.47 242.34 C 37.58 249.91 33.71 262.53 36.55 273.82 C 39.68 286.95 49.53 297.23 59.91 305.25 C 66.44 310.44 74.67 313.35 80.30 319.67 C 83.63 323.73 86.27 328.31 89.25 332.63 C 94.46 340.29 101.03 347.43 109.64 351.26 C 118.50 355.22 129.17 356.42 138.12 352.08 C 150.45 346.58 158.30 334.71 163.87 322.90 C 174.44 299.46 178.09 273.51 178.75 248.02 L 179.98 248.04 C 179.64 255.49 180.93 262.83 181.31 270.25 C 183.58 289.55 186.17 309.69 196.48 326.59 C 202.69 337.00 213.45 344.73 225.58 346.27 C 236.33 348.26 248.15 345.73 256.32 338.24 C 265.74 330.46 270.83 318.99 279.39 310.45 C 286.15 305.30 295.13 304.75 302.39 300.49 C 316.61 293.39 328.26 278.50 327.01 261.99 C 326.43 250.74 319.07 241.07 310.53 234.29 C 292.54 220.15 271.54 210.28 249.94 203.03 C 248.74 202.69 247.86 201.93 247.28 200.76 C 266.62 205.84 285.65 212.97 305.72 214.60 C 312.76 215.00 320.02 214.10 326.52 211.29 C 336.35 207.41 343.92 198.55 346.64 188.38 C 348.49 182.76 347.93 176.80 347.99 170.98 C 348.01 158.31 343.73 145.77 336.20 135.60 C 334.52 132.62 332.90 129.52 332.52 126.07 C 330.39 112.48 328.11 98.63 322.08 86.14 C 317.90 79.09 311.83 72.79 304.23 69.49 C 296.87 65.72 288.04 66.34 280.27 68.41 C 265.61 73.00 253.59 83.22 242.93 93.93 C 240.45 96.16 238.82 99.55 235.43 100.55 C 240.64 91.35 246.48 82.42 250.32 72.50 C 257.30 57.48 257.07 38.48 247.05 24.86 C 240.26 15.57 229.31 9.69 218.03 8.05 C 202.60 6.15 188.16 13.21 173.10 14.88 C 160.04 12.88 147.58 6.06 134.04 8.10 C 121.29 10.73 109.45 19.33 104.32 31.49 Z" />
<path fill="#000000" opacity="1.00" d=" M 120.52 21.69 C 125.62 18.12 131.41 14.90 137.78 14.69 C 149.97 14.24 161.01 20.54 172.98 21.74 C 186.56 20.90 199.26 14.50 212.96 14.69 C 221.07 14.63 228.93 17.84 235.38 22.61 C 240.93 26.80 244.62 33.00 246.86 39.50 C 248.28 45.41 248.66 51.60 247.84 57.63 C 244.05 74.17 234.62 88.61 225.37 102.56 C 216.55 115.08 207.11 127.18 196.98 138.68 C 192.23 136.60 186.95 135.47 182.75 132.30 C 179.24 129.32 178.68 124.36 178.81 120.03 C 178.81 103.35 178.84 86.67 178.81 70.00 C 179.35 67.74 176.59 66.85 175.09 68.21 C 174.26 70.37 174.77 72.69 174.71 74.92 C 174.74 89.94 174.72 104.97 174.72 119.99 C 174.79 122.55 174.41 125.09 173.95 127.60 C 170.77 134.90 161.87 134.85 155.47 137.45 C 141.73 115.92 128.46 94.06 116.25 71.62 C 115.06 68.84 113.71 66.14 112.24 63.51 C 108.98 56.52 107.51 48.63 108.72 40.97 C 109.67 33.20 114.66 26.58 120.52 21.69 M 177.63 29.93 C 169.21 27.89 161.00 24.96 152.44 23.53 C 144.64 22.21 136.42 23.71 129.58 27.68 C 127.18 29.19 123.31 30.45 124.85 34.06 C 125.57 34.01 127.02 33.92 127.74 33.88 C 134.67 27.68 144.60 29.04 152.56 32.21 C 160.80 36.31 169.58 39.45 178.70 40.84 C 187.72 41.82 196.00 37.45 203.91 33.78 C 209.40 31.02 215.26 27.79 221.61 28.50 C 225.96 28.89 229.45 31.73 232.57 34.52 C 233.97 35.78 235.45 33.92 236.49 33.08 C 231.35 26.99 224.28 21.49 216.06 20.99 C 202.30 19.51 191.51 32.27 177.63 29.93 Z" />
<path fill="#000000" opacity="1.00" d=" M 36.04 91.96 C 42.65 80.31 55.76 70.48 69.77 72.94 C 76.72 74.63 83.05 78.20 89.00 82.08 C 102.79 91.81 113.20 105.30 123.50 118.47 C 130.14 127.32 137.23 135.82 144.43 144.20 C 138.31 148.96 133.53 155.22 129.99 162.09 C 128.91 164.38 126.93 165.98 124.68 167.03 C 107.24 162.68 90.23 156.82 72.89 152.14 C 72.18 152.12 70.77 152.09 70.07 152.07 C 70.32 153.49 69.65 155.83 71.78 155.90 C 87.16 160.44 102.54 165.01 117.92 169.60 C 120.46 170.27 122.90 171.35 124.99 172.96 C 126.38 180.21 124.98 187.75 127.02 194.95 C 105.85 204.69 84.23 214.30 61.18 218.58 C 50.37 220.52 38.64 220.76 28.69 215.47 C 22.35 212.23 17.62 206.63 14.13 200.54 C 9.44 187.19 13.36 172.72 19.19 160.38 C 26.00 151.37 30.43 140.54 31.15 129.22 C 32.14 116.79 30.46 103.54 36.04 91.96 M 55.96 90.85 C 48.52 96.39 44.86 105.88 45.00 114.97 C 44.86 123.04 45.38 131.11 44.98 139.17 C 42.88 152.71 30.46 160.99 25.56 173.25 C 23.12 178.97 23.43 185.34 24.29 191.36 C 25.75 195.35 26.41 199.87 29.08 203.26 C 30.07 204.89 32.31 202.25 32.00 200.98 C 31.55 196.30 29.55 191.82 29.90 187.04 C 29.54 180.10 33.39 173.88 38.21 169.22 C 45.57 162.32 53.32 154.72 55.70 144.55 C 56.92 135.72 55.11 126.90 54.00 118.17 C 53.87 112.07 53.01 105.55 55.92 99.91 C 58.83 93.88 64.77 89.94 70.99 87.91 C 73.11 87.66 72.61 85.33 72.85 83.81 C 66.66 84.21 60.91 87.28 55.96 90.85 Z" />
<path fill="#000000" opacity="1.00" d=" M 271.59 79.71 C 277.84 76.32 284.69 73.39 291.95 73.72 C 301.89 73.60 310.35 80.58 315.53 88.54 C 319.97 97.18 322.03 106.80 323.95 116.26 C 325.37 122.68 325.21 129.59 328.35 135.53 C 331.46 141.19 335.14 146.55 337.82 152.44 C 339.54 158.15 341.14 163.99 341.12 170.00 C 341.21 175.99 341.77 182.20 339.55 187.91 C 337.20 195.78 330.88 202.11 323.35 205.21 C 318.73 206.87 313.83 207.70 308.94 207.98 C 296.93 207.24 285.14 204.56 273.67 201.03 C 257.11 196.52 240.76 191.18 223.91 187.83 C 224.19 182.52 223.75 177.22 223.60 171.92 C 223.28 167.87 227.31 165.79 230.36 164.22 C 240.73 159.38 251.06 154.44 261.48 149.69 C 266.53 147.26 271.63 144.93 276.69 142.53 C 276.71 141.84 276.73 140.44 276.74 139.74 C 275.75 139.54 274.70 138.81 273.71 139.36 C 260.26 145.63 246.84 151.97 233.42 158.31 C 230.30 159.71 227.22 161.31 223.86 162.05 C 220.88 162.61 218.85 159.76 217.27 157.70 C 214.80 153.86 211.78 150.43 208.67 147.11 C 217.52 135.54 226.00 123.66 235.36 112.47 C 246.10 100.23 257.34 87.94 271.59 79.71 M 293.30 80.63 C 293.17 81.86 293.06 83.09 292.96 84.32 C 296.04 86.38 299.47 88.22 301.48 91.48 C 306.59 98.35 306.51 107.39 305.77 115.53 C 304.82 120.99 304.96 126.55 305.01 132.07 C 305.00 135.36 306.31 138.47 307.68 141.40 C 311.06 148.88 317.21 154.41 322.32 160.65 C 326.31 165.47 328.62 171.69 328.16 177.98 C 328.49 182.04 326.66 185.92 327.28 189.97 C 328.35 189.75 330.27 190.45 330.59 188.91 C 334.19 180.02 336.22 169.84 332.78 160.57 C 329.13 150.80 320.57 143.86 316.98 134.08 C 313.78 124.99 315.96 115.20 313.90 105.92 C 312.19 94.63 303.90 84.68 293.30 80.63 Z" />
<path fill="#000000" opacity="1.00" d=" M 166.58 142.31 C 177.63 140.38 189.65 142.30 198.71 149.20 C 205.78 153.74 210.53 160.94 213.84 168.51 C 216.24 175.55 216.85 183.15 215.65 190.49 C 213.19 203.70 203.96 215.42 191.64 220.82 C 184.35 224.41 176.03 224.67 168.09 223.95 C 155.13 221.75 143.44 213.06 137.67 201.25 C 136.11 198.10 135.23 194.68 134.11 191.37 C 132.79 182.11 133.43 172.26 138.10 163.96 C 143.58 152.85 154.55 144.90 166.58 142.31 M 174.61 150.69 C 174.80 151.98 175.01 153.26 175.23 154.54 C 180.56 155.26 186.02 156.39 190.42 159.69 C 202.53 167.25 206.84 184.91 199.12 197.03 C 194.40 205.73 184.77 210.59 175.16 211.43 C 175.08 212.39 174.92 214.31 174.84 215.27 C 177.80 216.54 180.98 215.59 183.94 214.82 C 197.41 211.09 207.76 198.07 207.97 184.03 C 208.41 171.39 201.02 158.75 189.50 153.35 C 184.91 151.31 179.67 148.99 174.61 150.69 Z" />
<path fill="#000000" opacity="1.00" d=" M 220.40 201.77 C 237.63 205.96 254.66 211.24 270.74 218.74 C 271.14 218.84 271.94 219.05 272.35 219.15 C 280.62 223.66 289.26 227.59 296.97 233.09 C 305.89 238.82 315.12 245.77 318.86 256.11 C 321.84 263.93 319.65 272.55 315.78 279.64 C 311.08 286.77 304.18 292.02 296.61 295.81 C 288.81 299.13 279.59 300.08 273.44 306.46 C 264.74 315.56 259.58 327.82 249.04 335.17 C 242.36 339.65 233.84 341.07 226.03 339.29 C 215.02 337.77 205.90 329.80 200.74 320.26 C 192.66 305.44 190.41 288.41 188.40 271.90 C 187.05 258.41 186.44 244.87 185.16 231.38 C 189.37 229.98 193.62 228.69 197.60 226.70 C 200.23 225.62 203.52 224.04 206.20 225.79 C 209.73 227.84 212.65 230.82 215.14 234.03 C 226.06 246.50 237.17 258.84 247.98 271.41 C 249.14 270.92 250.27 270.32 251.25 269.50 C 248.75 265.19 244.89 261.91 241.80 258.06 C 236.57 252.32 231.53 246.40 226.29 240.67 C 221.13 234.17 214.55 228.69 210.79 221.15 C 210.91 218.39 211.84 215.71 213.56 213.54 C 216.28 209.89 218.63 205.97 220.40 201.77 M 301.04 255.24 C 300.86 258.92 301.62 262.79 300.15 266.29 C 298.94 269.71 296.72 272.76 293.74 274.85 C 285.51 280.97 275.21 283.22 266.53 288.56 C 259.73 293.30 255.28 300.50 251.93 307.94 C 249.55 312.70 247.49 317.87 243.32 321.39 C 239.79 324.40 234.96 324.99 230.50 325.24 C 230.41 325.96 230.24 327.39 230.15 328.10 C 237.25 330.57 245.50 327.78 250.99 322.93 C 258.68 315.13 263.28 304.77 271.27 297.23 C 281.34 289.71 294.26 285.51 301.79 274.93 C 306.06 269.21 306.38 261.48 304.02 254.92 C 303.28 255.00 301.78 255.16 301.04 255.24 Z" />
<path fill="#000000" opacity="1.00" d=" M 75.42 234.24 C 94.89 226.63 114.59 219.33 132.82 208.99 C 135.72 213.76 140.13 217.25 143.59 221.54 C 145.65 224.07 143.64 226.86 142.06 228.98 C 131.03 243.45 119.81 257.80 108.81 272.29 C 109.49 273.12 110.18 273.95 110.97 274.69 C 113.76 273.63 114.94 270.72 116.74 268.58 C 125.05 257.96 133.16 247.17 141.44 236.53 C 143.74 233.31 146.19 230.15 149.45 227.85 C 153.99 227.27 158.05 229.65 162.34 230.63 C 165.42 231.37 168.54 231.90 171.70 232.19 C 172.56 243.92 171.75 255.68 170.74 267.36 C 168.45 288.38 163.78 309.62 153.22 328.15 C 147.78 337.11 139.85 345.94 128.99 347.70 C 120.87 348.63 112.34 346.09 105.98 340.96 C 100.88 337.38 97.55 331.99 93.84 327.12 C 89.64 320.87 85.93 313.96 79.51 309.66 C 71.10 304.19 61.98 299.46 55.19 291.90 C 48.43 284.91 42.41 276.01 42.59 265.90 C 42.36 258.72 46.16 252.05 51.32 247.30 C 58.39 241.38 66.90 237.58 75.42 234.24 M 51.11 256.29 C 49.92 262.74 49.92 269.74 53.65 275.42 C 60.44 286.59 73.63 290.68 83.25 298.71 C 90.98 306.14 95.03 316.35 101.12 325.02 C 107.29 333.77 117.65 339.61 128.46 339.43 C 128.31 338.64 128.02 337.05 127.87 336.26 C 123.96 333.94 119.31 333.05 115.61 330.31 C 111.64 328.01 108.75 324.36 106.20 320.64 C 102.32 311.71 99.83 301.87 93.21 294.45 C 83.81 284.18 68.16 283.38 58.75 273.15 C 54.52 268.60 54.62 262.12 55.00 256.33 C 54.50 256.01 53.49 255.38 52.98 255.07 C 52.52 255.37 51.58 255.98 51.11 256.29 Z" />
</g>
<g id="#ffffffff">
<path fill="#ffffff" opacity="1.00" d=" M 104.32 31.49 C 109.45 19.33 121.29 10.73 134.04 8.10 C 147.58 6.06 160.04 12.88 173.10 14.88 C 188.16 13.21 202.60 6.15 218.03 8.05 C 229.31 9.69 240.26 15.57 247.05 24.86 C 257.07 38.48 257.30 57.48 250.32 72.50 C 246.48 82.42 240.64 91.35 235.43 100.55 C 238.82 99.55 240.45 96.16 242.93 93.93 C 253.59 83.22 265.61 73.00 280.27 68.41 C 288.04 66.34 296.87 65.72 304.23 69.49 C 311.83 72.79 317.90 79.09 322.08 86.14 C 328.11 98.63 330.39 112.48 332.52 126.07 C 332.90 129.52 334.52 132.62 336.20 135.60 C 343.73 145.77 348.01 158.31 347.99 170.98 C 347.93 176.80 348.49 182.76 346.64 188.38 C 343.92 198.55 336.35 207.41 326.52 211.29 C 320.02 214.10 312.76 215.00 305.72 214.60 C 285.65 212.97 266.62 205.84 247.28 200.76 C 247.86 201.93 248.74 202.69 249.94 203.03 C 271.54 210.28 292.54 220.15 310.53 234.29 C 319.07 241.07 326.43 250.74 327.01 261.99 C 328.26 278.50 316.61 293.39 302.39 300.49 C 295.13 304.75 286.15 305.30 279.39 310.45 C 270.83 318.99 265.74 330.46 256.32 338.24 C 248.15 345.73 236.33 348.26 225.58 346.27 C 213.45 344.73 202.69 337.00 196.48 326.59 C 186.17 309.69 183.58 289.55 181.31 270.25 C 180.93 262.83 179.64 255.49 179.98 248.04 L 178.75 248.02 C 178.09 273.51 174.44 299.46 163.87 322.90 C 158.30 334.71 150.45 346.58 138.12 352.08 C 129.17 356.42 118.50 355.22 109.64 351.26 C 101.03 347.43 94.46 340.29 89.25 332.63 C 86.27 328.31 83.63 323.73 80.30 319.67 C 74.67 313.35 66.44 310.44 59.91 305.25 C 49.53 297.23 39.68 286.95 36.55 273.82 C 33.71 262.53 37.58 249.91 46.47 242.34 C 57.04 233.18 70.62 228.81 83.42 223.77 C 96.02 218.87 108.45 213.58 120.65 207.75 C 122.53 206.66 124.99 206.03 125.63 203.63 C 121.12 204.91 117.06 207.32 112.70 208.97 C 95.75 216.25 78.28 222.85 59.95 225.61 C 48.39 226.75 36.08 227.04 25.49 221.49 C 14.78 215.98 6.42 205.18 5.41 192.96 C 4.31 179.87 7.90 166.55 14.29 155.17 C 20.41 147.25 23.91 137.42 24.41 127.44 C 24.89 117.45 24.38 107.29 26.77 97.49 C 28.83 86.89 36.44 78.34 44.97 72.20 C 53.39 66.37 64.48 63.74 74.39 67.05 C 89.45 71.80 101.79 82.32 112.24 93.81 C 121.36 104.10 129.68 115.07 138.09 125.95 C 138.91 127.18 140.01 128.14 141.45 128.62 C 129.22 107.41 115.53 86.95 105.30 64.63 C 100.65 54.31 99.81 42.02 104.32 31.49 M 120.52 21.69 C 114.66 26.58 109.67 33.20 108.72 40.97 C 107.51 48.63 108.98 56.52 112.24 63.51 C 113.71 66.14 115.06 68.84 116.25 71.62 C 128.46 94.06 141.73 115.92 155.47 137.45 C 161.87 134.85 170.77 134.90 173.95 127.60 C 174.41 125.09 174.79 122.55 174.72 119.99 C 174.72 104.97 174.74 89.94 174.71 74.92 C 174.77 72.69 174.26 70.37 175.09 68.21 C 176.59 66.85 179.35 67.74 178.81 70.00 C 178.84 86.67 178.81 103.35 178.81 120.03 C 178.68 124.36 179.24 129.32 182.75 132.30 C 186.95 135.47 192.23 136.60 196.98 138.68 C 207.11 127.18 216.55 115.08 225.37 102.56 C 234.62 88.61 244.05 74.17 247.84 57.63 C 248.66 51.60 248.28 45.41 246.86 39.50 C 244.62 33.00 240.93 26.80 235.38 22.61 C 228.93 17.84 221.07 14.63 212.96 14.69 C 199.26 14.50 186.56 20.90 172.98 21.74 C 161.01 20.54 149.97 14.24 137.78 14.69 C 131.41 14.90 125.62 18.12 120.52 21.69 M 36.04 91.96 C 30.46 103.54 32.14 116.79 31.15 129.22 C 30.43 140.54 26.00 151.37 19.19 160.38 C 13.36 172.72 9.44 187.19 14.13 200.54 C 17.62 206.63 22.35 212.23 28.69 215.47 C 38.64 220.76 50.37 220.52 61.18 218.58 C 84.23 214.30 105.85 204.69 127.02 194.95 C 124.98 187.75 126.38 180.21 124.99 172.96 C 122.90 171.35 120.46 170.27 117.92 169.60 C 102.54 165.01 87.16 160.44 71.78 155.90 C 69.65 155.83 70.32 153.49 70.07 152.07 C 70.77 152.09 72.18 152.12 72.89 152.14 C 90.23 156.82 107.24 162.68 124.68 167.03 C 126.93 165.98 128.91 164.38 129.99 162.09 C 133.53 155.22 138.31 148.96 144.43 144.20 C 137.23 135.82 130.14 127.32 123.50 118.47 C 113.20 105.30 102.79 91.81 89.00 82.08 C 83.05 78.20 76.72 74.63 69.77 72.94 C 55.76 70.48 42.65 80.31 36.04 91.96 M 271.59 79.71 C 257.34 87.94 246.10 100.23 235.36 112.47 C 226.00 123.66 217.52 135.54 208.67 147.11 C 211.78 150.43 214.80 153.86 217.27 157.70 C 218.85 159.76 220.88 162.61 223.86 162.05 C 227.22 161.31 230.30 159.71 233.42 158.31 C 246.84 151.97 260.26 145.63 273.71 139.36 C 274.70 138.81 275.75 139.54 276.74 139.74 C 276.73 140.44 276.71 141.84 276.69 142.53 C 271.63 144.93 266.53 147.26 261.48 149.69 C 251.06 154.44 240.73 159.38 230.36 164.22 C 227.31 165.79 223.28 167.87 223.60 171.92 C 223.75 177.22 224.19 182.52 223.91 187.83 C 240.76 191.18 257.11 196.52 273.67 201.03 C 285.14 204.56 296.93 207.24 308.94 207.98 C 313.83 207.70 318.73 206.87 323.35 205.21 C 330.88 202.11 337.20 195.78 339.55 187.91 C 341.77 182.20 341.21 175.99 341.12 170.00 C 341.14 163.99 339.54 158.15 337.82 152.44 C 335.14 146.55 331.46 141.19 328.35 135.53 C 325.21 129.59 325.37 122.68 323.95 116.26 C 322.03 106.80 319.97 97.18 315.53 88.54 C 310.35 80.58 301.89 73.60 291.95 73.72 C 284.69 73.39 277.84 76.32 271.59 79.71 M 166.58 142.31 C 154.55 144.90 143.58 152.85 138.10 163.96 C 133.43 172.26 132.79 182.11 134.11 191.37 C 135.23 194.68 136.11 198.10 137.67 201.25 C 143.44 213.06 155.13 221.75 168.09 223.95 C 176.03 224.67 184.35 224.41 191.64 220.82 C 203.96 215.42 213.19 203.70 215.65 190.49 C 216.85 183.15 216.24 175.55 213.84 168.51 C 210.53 160.94 205.78 153.74 198.71 149.20 C 189.65 142.30 177.63 140.38 166.58 142.31 M 220.40 201.77 C 218.63 205.97 216.28 209.89 213.56 213.54 C 211.84 215.71 210.91 218.39 210.79 221.15 C 214.55 228.69 221.13 234.17 226.29 240.67 C 231.53 246.40 236.57 252.32 241.80 258.06 C 244.89 261.91 248.75 265.19 251.25 269.50 C 250.27 270.32 249.14 270.92 247.98 271.41 C 237.17 258.84 226.06 246.50 215.14 234.03 C 212.65 230.82 209.73 227.84 206.20 225.79 C 203.52 224.04 200.23 225.62 197.60 226.70 C 193.62 228.69 189.37 229.98 185.16 231.38 C 186.44 244.87 187.05 258.41 188.40 271.90 C 190.41 288.41 192.66 305.44 200.74 320.26 C 205.90 329.80 215.02 337.77 226.03 339.29 C 233.84 341.07 242.36 339.65 249.04 335.17 C 259.58 327.82 264.74 315.56 273.44 306.46 C 279.59 300.08 288.81 299.13 296.61 295.81 C 304.18 292.02 311.08 286.77 315.78 279.64 C 319.65 272.55 321.84 263.93 318.86 256.11 C 315.12 245.77 305.89 238.82 296.97 233.09 C 289.26 227.59 280.62 223.66 272.35 219.15 C 271.94 219.05 271.14 218.84 270.74 218.74 C 254.66 211.24 237.63 205.96 220.40 201.77 M 75.42 234.24 C 66.90 237.58 58.39 241.38 51.32 247.30 C 46.16 252.05 42.36 258.72 42.59 265.90 C 42.41 276.01 48.43 284.91 55.19 291.90 C 61.98 299.46 71.10 304.19 79.51 309.66 C 85.93 313.96 89.64 320.87 93.84 327.12 C 97.55 331.99 100.88 337.38 105.98 340.96 C 112.34 346.09 120.87 348.63 128.99 347.70 C 139.85 345.94 147.78 337.11 153.22 328.15 C 163.78 309.62 168.45 288.38 170.74 267.36 C 171.75 255.68 172.56 243.92 171.70 232.19 C 168.54 231.90 165.42 231.37 162.34 230.63 C 158.05 229.65 153.99 227.27 149.45 227.85 C 146.19 230.15 143.74 233.31 141.44 236.53 C 133.16 247.17 125.05 257.96 116.74 268.58 C 114.94 270.72 113.76 273.63 110.97 274.69 C 110.18 273.95 109.49 273.12 108.81 272.29 C 119.81 257.80 131.03 243.45 142.06 228.98 C 143.64 226.86 145.65 224.07 143.59 221.54 C 140.13 217.25 135.72 213.76 132.82 208.99 C 114.59 219.33 94.89 226.63 75.42 234.24 Z" />
<path fill="#ffffff" opacity="1.00" d=" M 177.63 29.93 C 191.51 32.27 202.30 19.51 216.06 20.99 C 224.28 21.49 231.35 26.99 236.49 33.08 C 235.45 33.92 233.97 35.78 232.57 34.52 C 229.45 31.73 225.96 28.89 221.61 28.50 C 215.26 27.79 209.40 31.02 203.91 33.78 C 196.00 37.45 187.72 41.82 178.70 40.84 C 169.58 39.45 160.80 36.31 152.56 32.21 C 144.60 29.04 134.67 27.68 127.74 33.88 C 127.02 33.92 125.57 34.01 124.85 34.06 C 123.31 30.45 127.18 29.19 129.58 27.68 C 136.42 23.71 144.64 22.21 152.44 23.53 C 161.00 24.96 169.21 27.89 177.63 29.93 Z" />
<path fill="#ffffff" opacity="1.00" d=" M 293.30 80.63 C 303.90 84.68 312.19 94.63 313.90 105.92 C 315.96 115.20 313.78 124.99 316.98 134.08 C 320.57 143.86 329.13 150.80 332.78 160.57 C 336.22 169.84 334.19 180.02 330.59 188.91 C 330.27 190.45 328.35 189.75 327.28 189.97 C 326.66 185.92 328.49 182.04 328.16 177.98 C 328.62 171.69 326.31 165.47 322.32 160.65 C 317.21 154.41 311.06 148.88 307.68 141.40 C 306.31 138.47 305.00 135.36 305.01 132.07 C 304.96 126.55 304.82 120.99 305.77 115.53 C 306.51 107.39 306.59 98.35 301.48 91.48 C 299.47 88.22 296.04 86.38 292.96 84.32 C 293.06 83.09 293.17 81.86 293.30 80.63 Z" />
<path fill="#ffffff" opacity="1.00" d=" M 55.96 90.85 C 60.91 87.28 66.66 84.21 72.85 83.81 C 72.61 85.33 73.11 87.66 70.99 87.91 C 64.77 89.94 58.83 93.88 55.92 99.91 C 53.01 105.55 53.87 112.07 54.00 118.17 C 55.11 126.90 56.92 135.72 55.70 144.55 C 53.32 154.72 45.57 162.32 38.21 169.22 C 33.39 173.88 29.54 180.10 29.90 187.04 C 29.55 191.82 31.55 196.30 32.00 200.98 C 32.31 202.25 30.07 204.89 29.08 203.26 C 26.41 199.87 25.75 195.35 24.29 191.36 C 23.43 185.34 23.12 178.97 25.56 173.25 C 30.46 160.99 42.88 152.71 44.98 139.17 C 45.38 131.11 44.86 123.04 45.00 114.97 C 44.86 105.88 48.52 96.39 55.96 90.85 Z" />
<path fill="#ffffff" opacity="1.00" d=" M 174.61 150.69 C 179.67 148.99 184.91 151.31 189.50 153.35 C 201.02 158.75 208.41 171.39 207.97 184.03 C 207.76 198.07 197.41 211.09 183.94 214.82 C 180.98 215.59 177.80 216.54 174.84 215.27 C 174.92 214.31 175.08 212.39 175.16 211.43 C 184.77 210.59 194.40 205.73 199.12 197.03 C 206.84 184.91 202.53 167.25 190.42 159.69 C 186.02 156.39 180.56 155.26 175.23 154.54 C 175.01 153.26 174.80 151.98 174.61 150.69 Z" />
<path fill="#ffffff" opacity="1.00" d=" M 51.11 256.29 C 51.58 255.98 52.52 255.37 52.98 255.07 C 53.49 255.38 54.50 256.01 55.00 256.33 C 54.62 262.12 54.52 268.60 58.75 273.15 C 68.16 283.38 83.81 284.18 93.21 294.45 C 99.83 301.87 102.32 311.71 106.20 320.64 C 108.75 324.36 111.64 328.01 115.61 330.31 C 119.31 333.05 123.96 333.94 127.87 336.26 C 128.02 337.05 128.31 338.64 128.46 339.43 C 117.65 339.61 107.29 333.77 101.12 325.02 C 95.03 316.35 90.98 306.14 83.25 298.71 C 73.63 290.68 60.44 286.59 53.65 275.42 C 49.92 269.74 49.92 262.74 51.11 256.29 Z" />
<path fill="#ffffff" opacity="1.00" d=" M 301.04 255.24 C 301.78 255.16 303.28 255.00 304.02 254.92 C 306.38 261.48 306.06 269.21 301.79 274.93 C 294.26 285.51 281.34 289.71 271.27 297.23 C 263.28 304.77 258.68 315.13 250.99 322.93 C 245.50 327.78 237.25 330.57 230.15 328.10 C 230.24 327.39 230.41 325.96 230.50 325.24 C 234.96 324.99 239.79 324.40 243.32 321.39 C 247.49 317.87 249.55 312.70 251.93 307.94 C 255.28 300.50 259.73 293.30 266.53 288.56 C 275.21 283.22 285.51 280.97 293.74 274.85 C 296.72 272.76 298.94 269.71 300.15 266.29 C 301.62 262.79 300.86 258.92 301.04 255.24 Z" />
</g>
</svg>
